G75*
G70*
%OFA0B0*%
%FSLAX24Y24*%
%IPPOS*%
%LPD*%
%AMOC8*
5,1,8,0,0,1.08239X$1,22.5*
%
%ADD10C,0.0000*%
%ADD11C,0.1300*%
%ADD12C,0.0100*%
%ADD13C,0.0780*%
%ADD14R,0.0780X0.0780*%
%ADD15OC8,0.0780*%
%ADD16R,0.0631X0.0237*%
%ADD17R,0.0237X0.0631*%
%ADD18R,0.0985X0.0827*%
%ADD19R,0.0949X0.0237*%
%ADD20C,0.0434*%
%ADD21R,0.0552X0.0631*%
%ADD22R,0.0670X0.0750*%
%ADD23R,0.0827X0.0512*%
%ADD24R,0.0631X0.0552*%
%ADD25R,0.1300X0.0512*%
%ADD26R,0.0512X0.0512*%
%ADD27R,0.0827X0.0985*%
%ADD28R,0.0434X0.0512*%
D10*
X006069Y002089D02*
X006071Y002139D01*
X006077Y002189D01*
X006087Y002238D01*
X006101Y002286D01*
X006118Y002333D01*
X006139Y002378D01*
X006164Y002422D01*
X006192Y002463D01*
X006224Y002502D01*
X006258Y002539D01*
X006295Y002573D01*
X006335Y002603D01*
X006377Y002630D01*
X006421Y002654D01*
X006467Y002675D01*
X006514Y002691D01*
X006562Y002704D01*
X006612Y002713D01*
X006661Y002718D01*
X006712Y002719D01*
X006762Y002716D01*
X006811Y002709D01*
X006860Y002698D01*
X006908Y002683D01*
X006954Y002665D01*
X006999Y002643D01*
X007042Y002617D01*
X007083Y002588D01*
X007122Y002556D01*
X007158Y002521D01*
X007190Y002483D01*
X007220Y002443D01*
X007247Y002400D01*
X007270Y002356D01*
X007289Y002310D01*
X007305Y002262D01*
X007317Y002213D01*
X007325Y002164D01*
X007329Y002114D01*
X007329Y002064D01*
X007325Y002014D01*
X007317Y001965D01*
X007305Y001916D01*
X007289Y001868D01*
X007270Y001822D01*
X007247Y001778D01*
X007220Y001735D01*
X007190Y001695D01*
X007158Y001657D01*
X007122Y001622D01*
X007083Y001590D01*
X007042Y001561D01*
X006999Y001535D01*
X006954Y001513D01*
X006908Y001495D01*
X006860Y001480D01*
X006811Y001469D01*
X006762Y001462D01*
X006712Y001459D01*
X006661Y001460D01*
X006612Y001465D01*
X006562Y001474D01*
X006514Y001487D01*
X006467Y001503D01*
X006421Y001524D01*
X006377Y001548D01*
X006335Y001575D01*
X006295Y001605D01*
X006258Y001639D01*
X006224Y001676D01*
X006192Y001715D01*
X006164Y001756D01*
X006139Y001800D01*
X006118Y001845D01*
X006101Y001892D01*
X006087Y001940D01*
X006077Y001989D01*
X006071Y002039D01*
X006069Y002089D01*
X003146Y015222D02*
X003148Y015249D01*
X003154Y015276D01*
X003163Y015302D01*
X003176Y015326D01*
X003192Y015349D01*
X003211Y015368D01*
X003233Y015385D01*
X003257Y015399D01*
X003282Y015409D01*
X003309Y015416D01*
X003336Y015419D01*
X003364Y015418D01*
X003391Y015413D01*
X003417Y015405D01*
X003441Y015393D01*
X003464Y015377D01*
X003485Y015359D01*
X003502Y015338D01*
X003517Y015314D01*
X003528Y015289D01*
X003536Y015263D01*
X003540Y015236D01*
X003540Y015208D01*
X003536Y015181D01*
X003528Y015155D01*
X003517Y015130D01*
X003502Y015106D01*
X003485Y015085D01*
X003464Y015067D01*
X003442Y015051D01*
X003417Y015039D01*
X003391Y015031D01*
X003364Y015026D01*
X003336Y015025D01*
X003309Y015028D01*
X003282Y015035D01*
X003257Y015045D01*
X003233Y015059D01*
X003211Y015076D01*
X003192Y015095D01*
X003176Y015118D01*
X003163Y015142D01*
X003154Y015168D01*
X003148Y015195D01*
X003146Y015222D01*
X003146Y016955D02*
X003148Y016982D01*
X003154Y017009D01*
X003163Y017035D01*
X003176Y017059D01*
X003192Y017082D01*
X003211Y017101D01*
X003233Y017118D01*
X003257Y017132D01*
X003282Y017142D01*
X003309Y017149D01*
X003336Y017152D01*
X003364Y017151D01*
X003391Y017146D01*
X003417Y017138D01*
X003441Y017126D01*
X003464Y017110D01*
X003485Y017092D01*
X003502Y017071D01*
X003517Y017047D01*
X003528Y017022D01*
X003536Y016996D01*
X003540Y016969D01*
X003540Y016941D01*
X003536Y016914D01*
X003528Y016888D01*
X003517Y016863D01*
X003502Y016839D01*
X003485Y016818D01*
X003464Y016800D01*
X003442Y016784D01*
X003417Y016772D01*
X003391Y016764D01*
X003364Y016759D01*
X003336Y016758D01*
X003309Y016761D01*
X003282Y016768D01*
X003257Y016778D01*
X003233Y016792D01*
X003211Y016809D01*
X003192Y016828D01*
X003176Y016851D01*
X003163Y016875D01*
X003154Y016901D01*
X003148Y016928D01*
X003146Y016955D01*
X006569Y021089D02*
X006571Y021139D01*
X006577Y021189D01*
X006587Y021238D01*
X006601Y021286D01*
X006618Y021333D01*
X006639Y021378D01*
X006664Y021422D01*
X006692Y021463D01*
X006724Y021502D01*
X006758Y021539D01*
X006795Y021573D01*
X006835Y021603D01*
X006877Y021630D01*
X006921Y021654D01*
X006967Y021675D01*
X007014Y021691D01*
X007062Y021704D01*
X007112Y021713D01*
X007161Y021718D01*
X007212Y021719D01*
X007262Y021716D01*
X007311Y021709D01*
X007360Y021698D01*
X007408Y021683D01*
X007454Y021665D01*
X007499Y021643D01*
X007542Y021617D01*
X007583Y021588D01*
X007622Y021556D01*
X007658Y021521D01*
X007690Y021483D01*
X007720Y021443D01*
X007747Y021400D01*
X007770Y021356D01*
X007789Y021310D01*
X007805Y021262D01*
X007817Y021213D01*
X007825Y021164D01*
X007829Y021114D01*
X007829Y021064D01*
X007825Y021014D01*
X007817Y020965D01*
X007805Y020916D01*
X007789Y020868D01*
X007770Y020822D01*
X007747Y020778D01*
X007720Y020735D01*
X007690Y020695D01*
X007658Y020657D01*
X007622Y020622D01*
X007583Y020590D01*
X007542Y020561D01*
X007499Y020535D01*
X007454Y020513D01*
X007408Y020495D01*
X007360Y020480D01*
X007311Y020469D01*
X007262Y020462D01*
X007212Y020459D01*
X007161Y020460D01*
X007112Y020465D01*
X007062Y020474D01*
X007014Y020487D01*
X006967Y020503D01*
X006921Y020524D01*
X006877Y020548D01*
X006835Y020575D01*
X006795Y020605D01*
X006758Y020639D01*
X006724Y020676D01*
X006692Y020715D01*
X006664Y020756D01*
X006639Y020800D01*
X006618Y020845D01*
X006601Y020892D01*
X006587Y020940D01*
X006577Y020989D01*
X006571Y021039D01*
X006569Y021089D01*
X026569Y015089D02*
X026571Y015139D01*
X026577Y015189D01*
X026587Y015238D01*
X026601Y015286D01*
X026618Y015333D01*
X026639Y015378D01*
X026664Y015422D01*
X026692Y015463D01*
X026724Y015502D01*
X026758Y015539D01*
X026795Y015573D01*
X026835Y015603D01*
X026877Y015630D01*
X026921Y015654D01*
X026967Y015675D01*
X027014Y015691D01*
X027062Y015704D01*
X027112Y015713D01*
X027161Y015718D01*
X027212Y015719D01*
X027262Y015716D01*
X027311Y015709D01*
X027360Y015698D01*
X027408Y015683D01*
X027454Y015665D01*
X027499Y015643D01*
X027542Y015617D01*
X027583Y015588D01*
X027622Y015556D01*
X027658Y015521D01*
X027690Y015483D01*
X027720Y015443D01*
X027747Y015400D01*
X027770Y015356D01*
X027789Y015310D01*
X027805Y015262D01*
X027817Y015213D01*
X027825Y015164D01*
X027829Y015114D01*
X027829Y015064D01*
X027825Y015014D01*
X027817Y014965D01*
X027805Y014916D01*
X027789Y014868D01*
X027770Y014822D01*
X027747Y014778D01*
X027720Y014735D01*
X027690Y014695D01*
X027658Y014657D01*
X027622Y014622D01*
X027583Y014590D01*
X027542Y014561D01*
X027499Y014535D01*
X027454Y014513D01*
X027408Y014495D01*
X027360Y014480D01*
X027311Y014469D01*
X027262Y014462D01*
X027212Y014459D01*
X027161Y014460D01*
X027112Y014465D01*
X027062Y014474D01*
X027014Y014487D01*
X026967Y014503D01*
X026921Y014524D01*
X026877Y014548D01*
X026835Y014575D01*
X026795Y014605D01*
X026758Y014639D01*
X026724Y014676D01*
X026692Y014715D01*
X026664Y014756D01*
X026639Y014800D01*
X026618Y014845D01*
X026601Y014892D01*
X026587Y014940D01*
X026577Y014989D01*
X026571Y015039D01*
X026569Y015089D01*
X026569Y004089D02*
X026571Y004139D01*
X026577Y004189D01*
X026587Y004238D01*
X026601Y004286D01*
X026618Y004333D01*
X026639Y004378D01*
X026664Y004422D01*
X026692Y004463D01*
X026724Y004502D01*
X026758Y004539D01*
X026795Y004573D01*
X026835Y004603D01*
X026877Y004630D01*
X026921Y004654D01*
X026967Y004675D01*
X027014Y004691D01*
X027062Y004704D01*
X027112Y004713D01*
X027161Y004718D01*
X027212Y004719D01*
X027262Y004716D01*
X027311Y004709D01*
X027360Y004698D01*
X027408Y004683D01*
X027454Y004665D01*
X027499Y004643D01*
X027542Y004617D01*
X027583Y004588D01*
X027622Y004556D01*
X027658Y004521D01*
X027690Y004483D01*
X027720Y004443D01*
X027747Y004400D01*
X027770Y004356D01*
X027789Y004310D01*
X027805Y004262D01*
X027817Y004213D01*
X027825Y004164D01*
X027829Y004114D01*
X027829Y004064D01*
X027825Y004014D01*
X027817Y003965D01*
X027805Y003916D01*
X027789Y003868D01*
X027770Y003822D01*
X027747Y003778D01*
X027720Y003735D01*
X027690Y003695D01*
X027658Y003657D01*
X027622Y003622D01*
X027583Y003590D01*
X027542Y003561D01*
X027499Y003535D01*
X027454Y003513D01*
X027408Y003495D01*
X027360Y003480D01*
X027311Y003469D01*
X027262Y003462D01*
X027212Y003459D01*
X027161Y003460D01*
X027112Y003465D01*
X027062Y003474D01*
X027014Y003487D01*
X026967Y003503D01*
X026921Y003524D01*
X026877Y003548D01*
X026835Y003575D01*
X026795Y003605D01*
X026758Y003639D01*
X026724Y003676D01*
X026692Y003715D01*
X026664Y003756D01*
X026639Y003800D01*
X026618Y003845D01*
X026601Y003892D01*
X026587Y003940D01*
X026577Y003989D01*
X026571Y004039D01*
X026569Y004089D01*
D11*
X027199Y004089D03*
X027199Y015089D03*
X007199Y021089D03*
X006699Y002089D03*
D12*
X001593Y001089D02*
X026806Y001089D01*
X026806Y001088D02*
X026845Y001090D01*
X026883Y001096D01*
X026920Y001105D01*
X026957Y001118D01*
X026992Y001135D01*
X027025Y001154D01*
X027056Y001177D01*
X027085Y001203D01*
X027111Y001232D01*
X027134Y001263D01*
X027153Y001296D01*
X027170Y001331D01*
X027183Y001368D01*
X027192Y001405D01*
X027198Y001443D01*
X027200Y001482D01*
X027199Y001482D02*
X027199Y002089D01*
X028199Y003089D01*
X028199Y015989D01*
X027199Y016989D01*
X027199Y021489D01*
X026599Y022089D01*
X001593Y022089D01*
X001554Y022087D01*
X001516Y022081D01*
X001479Y022072D01*
X001442Y022059D01*
X001407Y022042D01*
X001374Y022023D01*
X001343Y022000D01*
X001314Y021974D01*
X001288Y021945D01*
X001265Y021914D01*
X001246Y021881D01*
X001229Y021846D01*
X001216Y021809D01*
X001207Y021772D01*
X001201Y021734D01*
X001199Y021695D01*
X001199Y001482D01*
X001201Y001443D01*
X001207Y001405D01*
X001216Y001368D01*
X001229Y001331D01*
X001246Y001296D01*
X001265Y001263D01*
X001288Y001232D01*
X001314Y001203D01*
X001343Y001177D01*
X001374Y001154D01*
X001407Y001135D01*
X001442Y001118D01*
X001479Y001105D01*
X001516Y001096D01*
X001554Y001090D01*
X001593Y001088D01*
D13*
X013949Y006589D03*
X014949Y006589D03*
X015949Y006589D03*
X016199Y002089D03*
X017199Y002089D03*
X018199Y002089D03*
X019199Y002089D03*
X021199Y002089D03*
X022199Y002089D03*
X023199Y002089D03*
X024199Y002089D03*
X025199Y002089D03*
X026199Y002089D03*
X015199Y002089D03*
X014199Y002089D03*
X014599Y021089D03*
X013599Y021089D03*
X012599Y021089D03*
X011599Y021089D03*
X010599Y021089D03*
X009599Y021089D03*
X008599Y021089D03*
X015599Y021089D03*
X016599Y021089D03*
X019199Y021089D03*
X020199Y021089D03*
X021199Y021089D03*
X022199Y021089D03*
X023199Y021089D03*
X024199Y021089D03*
X025199Y021089D03*
D14*
X026199Y021089D03*
X017599Y021089D03*
D15*
X026249Y013089D03*
X027249Y013089D03*
X027249Y012089D03*
X026249Y012089D03*
X026249Y011089D03*
X027249Y011089D03*
X025199Y006589D03*
X024199Y006589D03*
X023199Y006589D03*
X023199Y005589D03*
X024199Y005589D03*
X025199Y005589D03*
D16*
X022233Y011014D03*
X022233Y011329D03*
X022233Y011644D03*
X022233Y011959D03*
X022233Y012274D03*
X022233Y012589D03*
X022233Y012903D03*
X022233Y013218D03*
X022233Y013533D03*
X022233Y013848D03*
X022233Y014163D03*
X017666Y014163D03*
X017666Y013848D03*
X017666Y013533D03*
X017666Y013218D03*
X017666Y012903D03*
X017666Y012589D03*
X017666Y012274D03*
X017666Y011959D03*
X017666Y011644D03*
X017666Y011329D03*
X017666Y011014D03*
D17*
X018375Y010305D03*
X018690Y010305D03*
X019004Y010305D03*
X019319Y010305D03*
X019634Y010305D03*
X019949Y010305D03*
X020264Y010305D03*
X020579Y010305D03*
X020894Y010305D03*
X021209Y010305D03*
X021524Y010305D03*
X021524Y014872D03*
X021209Y014872D03*
X020894Y014872D03*
X020579Y014872D03*
X020264Y014872D03*
X019949Y014872D03*
X019634Y014872D03*
X019319Y014872D03*
X019004Y014872D03*
X018690Y014872D03*
X018375Y014872D03*
D18*
X004327Y014356D03*
X002162Y014356D03*
X002162Y017821D03*
X004327Y017821D03*
D19*
X004549Y016718D03*
X004549Y016403D03*
X004549Y016089D03*
X004549Y015774D03*
X004549Y015459D03*
D20*
X003343Y015222D03*
X003343Y016955D03*
D21*
X006365Y015589D03*
X007034Y015589D03*
X007034Y014589D03*
X006365Y014589D03*
X008865Y014589D03*
X009534Y014589D03*
X013615Y014589D03*
X014284Y014589D03*
X014284Y015589D03*
X013615Y015589D03*
X013615Y016589D03*
X014284Y016589D03*
X018965Y017839D03*
X019634Y017839D03*
X020865Y017839D03*
X021534Y017839D03*
X023615Y013089D03*
X024284Y013089D03*
X024284Y012089D03*
X023615Y012089D03*
X014284Y011589D03*
X013615Y011589D03*
X013615Y010589D03*
X014284Y010589D03*
D22*
X007259Y017589D03*
X006140Y017589D03*
D23*
X008648Y013589D03*
X009751Y013589D03*
D24*
X008699Y016254D03*
X008699Y016923D03*
X017699Y016923D03*
X017699Y016254D03*
X021949Y016254D03*
X021949Y016923D03*
X022949Y016923D03*
X022949Y016254D03*
X022199Y008923D03*
X022199Y008254D03*
X021199Y008254D03*
X021199Y008923D03*
X017449Y008923D03*
X017449Y008254D03*
D25*
X005038Y019751D03*
X005038Y021326D03*
X002361Y021326D03*
X002361Y019751D03*
D26*
X011536Y016589D03*
X012363Y016589D03*
X012363Y015589D03*
X011536Y015589D03*
X011536Y014589D03*
X012363Y014589D03*
X012363Y011589D03*
X011536Y011589D03*
X011536Y010589D03*
X012363Y010589D03*
D27*
X019162Y016589D03*
X020737Y016589D03*
D28*
X009699Y017022D03*
X009699Y016155D03*
M02*
