%
M48
M72
T01C0.0150
T02C0.0394
T03C0.0400
T04C0.1260
%
T01
X3449Y6339
X3449Y7339
X4449Y7339
X4449Y6339
X11699Y7839
X12699Y7839
X15949Y9089
X16749Y10889
X14949Y11589
X16949Y13139
X17949Y15089
X17699Y15589
X17299Y18239
X14799Y20139
X15099Y20589
X18399Y21089
X23799Y18939
X25949Y16339
X26949Y16339
X25199Y14589
X24699Y14739
X24999Y13439
X22449Y15339
X21299Y13389
X20849Y12189
X21299Y11789
X19799Y12789
X19449Y12339
X20949Y9539
X22949Y9839
X24449Y11339
X25949Y9339
X26949Y9339
X25949Y8339
X21499Y6639
X21049Y7039
X21099Y7589
X18449Y9089
X17449Y6839
X20199Y3839
X12699Y2089
X11699Y2089
X11699Y13089
X12699Y13089
X12949Y15089
X12949Y16089
X11199Y18339
X9949Y18089
X8949Y18089
X7699Y16589
X6699Y16589
X7699Y15589
X7699Y14589
X7699Y13089
X6699Y13089
X10149Y19739
X5949Y20589
T02
X3343Y16955
X3343Y15222
T03
X8599Y21089
X9599Y21089
X10599Y21089
X11599Y21089
X12599Y21089
X13599Y21089
X14599Y21089
X15599Y21089
X16599Y21089
X17599Y21089
X19199Y21089
X20199Y21089
X21199Y21089
X22199Y21089
X23199Y21089
X24199Y21089
X25199Y21089
X26199Y21089
X26249Y13089
X27249Y13089
X27249Y12089
X26249Y12089
X26249Y11089
X27249Y11089
X25199Y6589
X24199Y6589
X23199Y6589
X23199Y5589
X24199Y5589
X25199Y5589
X25199Y2089
X26199Y2089
X24199Y2089
X23199Y2089
X22199Y2089
X21199Y2089
X19199Y2089
X18199Y2089
X17199Y2089
X16199Y2089
X15199Y2089
X14199Y2089
X13949Y6589
X14949Y6589
X15949Y6589
T04
X6699Y2089
X27199Y4089
X27199Y15089
X7199Y21089
M30
