G75*
G70*
%OFA0B0*%
%FSLAX24Y24*%
%IPPOS*%
%LPD*%
%AMOC8*
5,1,8,0,0,1.08239X$1,22.5*
%
%ADD10C,0.0000*%
%ADD11C,0.0100*%
%ADD12C,0.0120*%
%ADD13C,0.0050*%
D10*
X006069Y002089D02*
X006071Y002139D01*
X006077Y002189D01*
X006087Y002238D01*
X006101Y002286D01*
X006118Y002333D01*
X006139Y002378D01*
X006164Y002422D01*
X006192Y002463D01*
X006224Y002502D01*
X006258Y002539D01*
X006295Y002573D01*
X006335Y002603D01*
X006377Y002630D01*
X006421Y002654D01*
X006467Y002675D01*
X006514Y002691D01*
X006562Y002704D01*
X006612Y002713D01*
X006661Y002718D01*
X006712Y002719D01*
X006762Y002716D01*
X006811Y002709D01*
X006860Y002698D01*
X006908Y002683D01*
X006954Y002665D01*
X006999Y002643D01*
X007042Y002617D01*
X007083Y002588D01*
X007122Y002556D01*
X007158Y002521D01*
X007190Y002483D01*
X007220Y002443D01*
X007247Y002400D01*
X007270Y002356D01*
X007289Y002310D01*
X007305Y002262D01*
X007317Y002213D01*
X007325Y002164D01*
X007329Y002114D01*
X007329Y002064D01*
X007325Y002014D01*
X007317Y001965D01*
X007305Y001916D01*
X007289Y001868D01*
X007270Y001822D01*
X007247Y001778D01*
X007220Y001735D01*
X007190Y001695D01*
X007158Y001657D01*
X007122Y001622D01*
X007083Y001590D01*
X007042Y001561D01*
X006999Y001535D01*
X006954Y001513D01*
X006908Y001495D01*
X006860Y001480D01*
X006811Y001469D01*
X006762Y001462D01*
X006712Y001459D01*
X006661Y001460D01*
X006612Y001465D01*
X006562Y001474D01*
X006514Y001487D01*
X006467Y001503D01*
X006421Y001524D01*
X006377Y001548D01*
X006335Y001575D01*
X006295Y001605D01*
X006258Y001639D01*
X006224Y001676D01*
X006192Y001715D01*
X006164Y001756D01*
X006139Y001800D01*
X006118Y001845D01*
X006101Y001892D01*
X006087Y001940D01*
X006077Y001989D01*
X006071Y002039D01*
X006069Y002089D01*
X003146Y015222D02*
X003148Y015249D01*
X003154Y015276D01*
X003163Y015302D01*
X003176Y015326D01*
X003192Y015349D01*
X003211Y015368D01*
X003233Y015385D01*
X003257Y015399D01*
X003282Y015409D01*
X003309Y015416D01*
X003336Y015419D01*
X003364Y015418D01*
X003391Y015413D01*
X003417Y015405D01*
X003441Y015393D01*
X003464Y015377D01*
X003485Y015359D01*
X003502Y015338D01*
X003517Y015314D01*
X003528Y015289D01*
X003536Y015263D01*
X003540Y015236D01*
X003540Y015208D01*
X003536Y015181D01*
X003528Y015155D01*
X003517Y015130D01*
X003502Y015106D01*
X003485Y015085D01*
X003464Y015067D01*
X003442Y015051D01*
X003417Y015039D01*
X003391Y015031D01*
X003364Y015026D01*
X003336Y015025D01*
X003309Y015028D01*
X003282Y015035D01*
X003257Y015045D01*
X003233Y015059D01*
X003211Y015076D01*
X003192Y015095D01*
X003176Y015118D01*
X003163Y015142D01*
X003154Y015168D01*
X003148Y015195D01*
X003146Y015222D01*
X003146Y016955D02*
X003148Y016982D01*
X003154Y017009D01*
X003163Y017035D01*
X003176Y017059D01*
X003192Y017082D01*
X003211Y017101D01*
X003233Y017118D01*
X003257Y017132D01*
X003282Y017142D01*
X003309Y017149D01*
X003336Y017152D01*
X003364Y017151D01*
X003391Y017146D01*
X003417Y017138D01*
X003441Y017126D01*
X003464Y017110D01*
X003485Y017092D01*
X003502Y017071D01*
X003517Y017047D01*
X003528Y017022D01*
X003536Y016996D01*
X003540Y016969D01*
X003540Y016941D01*
X003536Y016914D01*
X003528Y016888D01*
X003517Y016863D01*
X003502Y016839D01*
X003485Y016818D01*
X003464Y016800D01*
X003442Y016784D01*
X003417Y016772D01*
X003391Y016764D01*
X003364Y016759D01*
X003336Y016758D01*
X003309Y016761D01*
X003282Y016768D01*
X003257Y016778D01*
X003233Y016792D01*
X003211Y016809D01*
X003192Y016828D01*
X003176Y016851D01*
X003163Y016875D01*
X003154Y016901D01*
X003148Y016928D01*
X003146Y016955D01*
X006569Y021089D02*
X006571Y021139D01*
X006577Y021189D01*
X006587Y021238D01*
X006601Y021286D01*
X006618Y021333D01*
X006639Y021378D01*
X006664Y021422D01*
X006692Y021463D01*
X006724Y021502D01*
X006758Y021539D01*
X006795Y021573D01*
X006835Y021603D01*
X006877Y021630D01*
X006921Y021654D01*
X006967Y021675D01*
X007014Y021691D01*
X007062Y021704D01*
X007112Y021713D01*
X007161Y021718D01*
X007212Y021719D01*
X007262Y021716D01*
X007311Y021709D01*
X007360Y021698D01*
X007408Y021683D01*
X007454Y021665D01*
X007499Y021643D01*
X007542Y021617D01*
X007583Y021588D01*
X007622Y021556D01*
X007658Y021521D01*
X007690Y021483D01*
X007720Y021443D01*
X007747Y021400D01*
X007770Y021356D01*
X007789Y021310D01*
X007805Y021262D01*
X007817Y021213D01*
X007825Y021164D01*
X007829Y021114D01*
X007829Y021064D01*
X007825Y021014D01*
X007817Y020965D01*
X007805Y020916D01*
X007789Y020868D01*
X007770Y020822D01*
X007747Y020778D01*
X007720Y020735D01*
X007690Y020695D01*
X007658Y020657D01*
X007622Y020622D01*
X007583Y020590D01*
X007542Y020561D01*
X007499Y020535D01*
X007454Y020513D01*
X007408Y020495D01*
X007360Y020480D01*
X007311Y020469D01*
X007262Y020462D01*
X007212Y020459D01*
X007161Y020460D01*
X007112Y020465D01*
X007062Y020474D01*
X007014Y020487D01*
X006967Y020503D01*
X006921Y020524D01*
X006877Y020548D01*
X006835Y020575D01*
X006795Y020605D01*
X006758Y020639D01*
X006724Y020676D01*
X006692Y020715D01*
X006664Y020756D01*
X006639Y020800D01*
X006618Y020845D01*
X006601Y020892D01*
X006587Y020940D01*
X006577Y020989D01*
X006571Y021039D01*
X006569Y021089D01*
X026569Y015089D02*
X026571Y015139D01*
X026577Y015189D01*
X026587Y015238D01*
X026601Y015286D01*
X026618Y015333D01*
X026639Y015378D01*
X026664Y015422D01*
X026692Y015463D01*
X026724Y015502D01*
X026758Y015539D01*
X026795Y015573D01*
X026835Y015603D01*
X026877Y015630D01*
X026921Y015654D01*
X026967Y015675D01*
X027014Y015691D01*
X027062Y015704D01*
X027112Y015713D01*
X027161Y015718D01*
X027212Y015719D01*
X027262Y015716D01*
X027311Y015709D01*
X027360Y015698D01*
X027408Y015683D01*
X027454Y015665D01*
X027499Y015643D01*
X027542Y015617D01*
X027583Y015588D01*
X027622Y015556D01*
X027658Y015521D01*
X027690Y015483D01*
X027720Y015443D01*
X027747Y015400D01*
X027770Y015356D01*
X027789Y015310D01*
X027805Y015262D01*
X027817Y015213D01*
X027825Y015164D01*
X027829Y015114D01*
X027829Y015064D01*
X027825Y015014D01*
X027817Y014965D01*
X027805Y014916D01*
X027789Y014868D01*
X027770Y014822D01*
X027747Y014778D01*
X027720Y014735D01*
X027690Y014695D01*
X027658Y014657D01*
X027622Y014622D01*
X027583Y014590D01*
X027542Y014561D01*
X027499Y014535D01*
X027454Y014513D01*
X027408Y014495D01*
X027360Y014480D01*
X027311Y014469D01*
X027262Y014462D01*
X027212Y014459D01*
X027161Y014460D01*
X027112Y014465D01*
X027062Y014474D01*
X027014Y014487D01*
X026967Y014503D01*
X026921Y014524D01*
X026877Y014548D01*
X026835Y014575D01*
X026795Y014605D01*
X026758Y014639D01*
X026724Y014676D01*
X026692Y014715D01*
X026664Y014756D01*
X026639Y014800D01*
X026618Y014845D01*
X026601Y014892D01*
X026587Y014940D01*
X026577Y014989D01*
X026571Y015039D01*
X026569Y015089D01*
X026569Y004089D02*
X026571Y004139D01*
X026577Y004189D01*
X026587Y004238D01*
X026601Y004286D01*
X026618Y004333D01*
X026639Y004378D01*
X026664Y004422D01*
X026692Y004463D01*
X026724Y004502D01*
X026758Y004539D01*
X026795Y004573D01*
X026835Y004603D01*
X026877Y004630D01*
X026921Y004654D01*
X026967Y004675D01*
X027014Y004691D01*
X027062Y004704D01*
X027112Y004713D01*
X027161Y004718D01*
X027212Y004719D01*
X027262Y004716D01*
X027311Y004709D01*
X027360Y004698D01*
X027408Y004683D01*
X027454Y004665D01*
X027499Y004643D01*
X027542Y004617D01*
X027583Y004588D01*
X027622Y004556D01*
X027658Y004521D01*
X027690Y004483D01*
X027720Y004443D01*
X027747Y004400D01*
X027770Y004356D01*
X027789Y004310D01*
X027805Y004262D01*
X027817Y004213D01*
X027825Y004164D01*
X027829Y004114D01*
X027829Y004064D01*
X027825Y004014D01*
X027817Y003965D01*
X027805Y003916D01*
X027789Y003868D01*
X027770Y003822D01*
X027747Y003778D01*
X027720Y003735D01*
X027690Y003695D01*
X027658Y003657D01*
X027622Y003622D01*
X027583Y003590D01*
X027542Y003561D01*
X027499Y003535D01*
X027454Y003513D01*
X027408Y003495D01*
X027360Y003480D01*
X027311Y003469D01*
X027262Y003462D01*
X027212Y003459D01*
X027161Y003460D01*
X027112Y003465D01*
X027062Y003474D01*
X027014Y003487D01*
X026967Y003503D01*
X026921Y003524D01*
X026877Y003548D01*
X026835Y003575D01*
X026795Y003605D01*
X026758Y003639D01*
X026724Y003676D01*
X026692Y003715D01*
X026664Y003756D01*
X026639Y003800D01*
X026618Y003845D01*
X026601Y003892D01*
X026587Y003940D01*
X026577Y003989D01*
X026571Y004039D01*
X026569Y004089D01*
D11*
X026806Y001089D02*
X001593Y001089D01*
X001593Y001088D02*
X001554Y001090D01*
X001516Y001096D01*
X001479Y001105D01*
X001442Y001118D01*
X001407Y001135D01*
X001374Y001154D01*
X001343Y001177D01*
X001314Y001203D01*
X001288Y001232D01*
X001265Y001263D01*
X001246Y001296D01*
X001229Y001331D01*
X001216Y001368D01*
X001207Y001405D01*
X001201Y001443D01*
X001199Y001482D01*
X001199Y021695D01*
X001201Y021734D01*
X001207Y021772D01*
X001216Y021809D01*
X001229Y021846D01*
X001246Y021881D01*
X001265Y021914D01*
X001288Y021945D01*
X001314Y021974D01*
X001343Y022000D01*
X001374Y022023D01*
X001407Y022042D01*
X001442Y022059D01*
X001479Y022072D01*
X001516Y022081D01*
X001554Y022087D01*
X001593Y022089D01*
X026599Y022089D01*
X027199Y021489D01*
X027199Y016989D01*
X028199Y015989D01*
X028199Y003089D01*
X027199Y002089D01*
X027199Y001482D01*
X027200Y001482D02*
X027198Y001443D01*
X027192Y001405D01*
X027183Y001368D01*
X027170Y001331D01*
X027153Y001296D01*
X027134Y001263D01*
X027111Y001232D01*
X027085Y001203D01*
X027056Y001177D01*
X027025Y001154D01*
X026992Y001135D01*
X026957Y001118D01*
X026920Y001105D01*
X026883Y001096D01*
X026845Y001090D01*
X026806Y001088D01*
D12*
X008014Y009329D02*
X007654Y009689D01*
X007834Y009689D02*
X007834Y009329D01*
X007654Y009329D02*
X008014Y009689D01*
X008014Y009509D02*
X007654Y009509D01*
X007406Y009599D02*
X007406Y009329D01*
X007316Y009239D01*
X007046Y009239D01*
X007046Y009599D01*
X006799Y009599D02*
X006709Y009599D01*
X006709Y009239D01*
X006799Y009239D02*
X006618Y009239D01*
X006393Y009239D02*
X006393Y009599D01*
X006123Y009599D01*
X006033Y009509D01*
X006033Y009239D01*
X005786Y009329D02*
X005696Y009239D01*
X005516Y009239D01*
X005425Y009329D01*
X005425Y009509D01*
X005516Y009599D01*
X005696Y009599D01*
X005786Y009509D01*
X005786Y009329D01*
X006709Y009779D02*
X006709Y009869D01*
X004570Y009689D02*
X004480Y009779D01*
X004300Y009779D01*
X004210Y009689D01*
X004210Y009599D01*
X004300Y009509D01*
X004210Y009419D01*
X004210Y009329D01*
X004300Y009239D01*
X004480Y009239D01*
X004570Y009329D01*
X004390Y009509D02*
X004300Y009509D01*
X003963Y009689D02*
X003873Y009779D01*
X003692Y009779D01*
X003602Y009689D01*
X003602Y009599D01*
X003963Y009239D01*
X003602Y009239D01*
X003355Y009329D02*
X003265Y009239D01*
X002995Y009239D01*
X002995Y009599D01*
X002747Y009509D02*
X002387Y009509D01*
X002477Y009779D02*
X002747Y009509D01*
X002477Y009239D02*
X002477Y009779D01*
X003355Y009599D02*
X003355Y009329D01*
D13*
X003473Y008814D02*
X003589Y008814D01*
X003648Y008755D01*
X003473Y008814D02*
X003414Y008755D01*
X003414Y008697D01*
X003648Y008464D01*
X003414Y008464D01*
X003279Y008464D02*
X003046Y008814D01*
X002911Y008755D02*
X002853Y008814D01*
X002736Y008814D01*
X002678Y008755D01*
X002678Y008697D01*
X002911Y008464D01*
X002678Y008464D01*
X002543Y008639D02*
X002309Y008639D01*
X002368Y008464D02*
X002368Y008814D01*
X002543Y008639D01*
X002543Y007947D02*
X002368Y007947D01*
X002309Y007889D01*
X002309Y007714D01*
X002543Y007714D02*
X002543Y007947D01*
X002678Y007889D02*
X002678Y007830D01*
X002911Y007830D01*
X002911Y007772D02*
X002911Y007889D01*
X002853Y007947D01*
X002736Y007947D01*
X002678Y007889D01*
X002736Y007714D02*
X002853Y007714D01*
X002911Y007772D01*
X003046Y007714D02*
X003046Y008064D01*
X003046Y007947D02*
X003221Y007947D01*
X003279Y007889D01*
X003279Y007772D01*
X003221Y007714D01*
X003046Y007714D01*
X003414Y007714D02*
X003414Y007889D01*
X003473Y007947D01*
X003648Y007947D01*
X003648Y007714D01*
X003776Y007714D02*
X003893Y007714D01*
X003835Y007714D02*
X003835Y007947D01*
X003893Y007947D01*
X003835Y008064D02*
X003835Y008122D01*
X003783Y008464D02*
X004016Y008464D01*
X003899Y008464D02*
X003899Y008814D01*
X004016Y008697D01*
X004151Y008814D02*
X004384Y008464D01*
X004519Y008464D02*
X004753Y008464D01*
X004636Y008464D02*
X004636Y008814D01*
X004753Y008697D01*
X004887Y008464D02*
X005121Y008464D01*
X005004Y008464D02*
X005004Y008814D01*
X005121Y008697D01*
X005256Y008755D02*
X005489Y008522D01*
X005431Y008464D01*
X005314Y008464D01*
X005256Y008522D01*
X005256Y008755D01*
X005314Y008814D01*
X005431Y008814D01*
X005489Y008755D01*
X005489Y008522D01*
X005624Y008464D02*
X005858Y008464D01*
X005624Y008697D01*
X005624Y008755D01*
X005682Y008814D01*
X005799Y008814D01*
X005858Y008755D01*
X006361Y008639D02*
X006361Y008464D01*
X006536Y008464D01*
X006594Y008522D01*
X006536Y008580D01*
X006361Y008580D01*
X006361Y008639D02*
X006419Y008697D01*
X006536Y008697D01*
X006729Y008697D02*
X006787Y008639D01*
X006904Y008639D01*
X006962Y008697D01*
X006962Y008755D01*
X006904Y008814D01*
X006787Y008814D01*
X006729Y008755D01*
X006729Y008697D01*
X006787Y008639D02*
X006729Y008580D01*
X006729Y008522D01*
X006787Y008464D01*
X006904Y008464D01*
X006962Y008522D01*
X006962Y008580D01*
X006904Y008639D01*
X007088Y008522D02*
X007088Y008464D01*
X007147Y008464D01*
X007147Y008522D01*
X007088Y008522D01*
X007281Y008522D02*
X007340Y008464D01*
X007457Y008464D01*
X007515Y008522D01*
X007281Y008755D01*
X007281Y008522D01*
X007281Y008755D02*
X007340Y008814D01*
X007457Y008814D01*
X007515Y008755D01*
X007515Y008522D01*
X007650Y008697D02*
X007766Y008464D01*
X007883Y008697D01*
X006717Y008064D02*
X006717Y007714D01*
X006542Y007714D01*
X006483Y007772D01*
X006483Y007889D01*
X006542Y007947D01*
X006717Y007947D01*
X006349Y007947D02*
X006349Y007772D01*
X006290Y007714D01*
X006115Y007714D01*
X006115Y007655D02*
X006173Y007597D01*
X006232Y007597D01*
X006115Y007655D02*
X006115Y007947D01*
X005612Y007947D02*
X005612Y007714D01*
X005612Y007889D02*
X005378Y007889D01*
X005378Y007947D02*
X005378Y007714D01*
X005244Y007772D02*
X005244Y007889D01*
X005185Y007947D01*
X005010Y007947D01*
X005010Y008064D02*
X005010Y007714D01*
X005185Y007714D01*
X005244Y007772D01*
X005378Y007947D02*
X005495Y008064D01*
X005612Y007947D01*
X004875Y007947D02*
X004817Y007947D01*
X004817Y007714D01*
X004875Y007714D02*
X004759Y007714D01*
X004817Y008064D02*
X004817Y008122D01*
X004262Y008064D02*
X004262Y007714D01*
X004028Y007714D01*
M02*
