G75*
G70*
%OFA0B0*%
%FSLAX24Y24*%
%IPPOS*%
%LPD*%
%AMOC8*
5,1,8,0,0,1.08239X$1,22.5*
%
%ADD10C,0.0000*%
%ADD11C,0.0100*%
%ADD12C,0.0740*%
%ADD13R,0.0740X0.0740*%
%ADD14OC8,0.0740*%
%ADD15C,0.0120*%
%ADD16C,0.0350*%
D10*
X006069Y002089D02*
X006071Y002139D01*
X006077Y002189D01*
X006087Y002238D01*
X006101Y002286D01*
X006118Y002333D01*
X006139Y002378D01*
X006164Y002422D01*
X006192Y002463D01*
X006224Y002502D01*
X006258Y002539D01*
X006295Y002573D01*
X006335Y002603D01*
X006377Y002630D01*
X006421Y002654D01*
X006467Y002675D01*
X006514Y002691D01*
X006562Y002704D01*
X006612Y002713D01*
X006661Y002718D01*
X006712Y002719D01*
X006762Y002716D01*
X006811Y002709D01*
X006860Y002698D01*
X006908Y002683D01*
X006954Y002665D01*
X006999Y002643D01*
X007042Y002617D01*
X007083Y002588D01*
X007122Y002556D01*
X007158Y002521D01*
X007190Y002483D01*
X007220Y002443D01*
X007247Y002400D01*
X007270Y002356D01*
X007289Y002310D01*
X007305Y002262D01*
X007317Y002213D01*
X007325Y002164D01*
X007329Y002114D01*
X007329Y002064D01*
X007325Y002014D01*
X007317Y001965D01*
X007305Y001916D01*
X007289Y001868D01*
X007270Y001822D01*
X007247Y001778D01*
X007220Y001735D01*
X007190Y001695D01*
X007158Y001657D01*
X007122Y001622D01*
X007083Y001590D01*
X007042Y001561D01*
X006999Y001535D01*
X006954Y001513D01*
X006908Y001495D01*
X006860Y001480D01*
X006811Y001469D01*
X006762Y001462D01*
X006712Y001459D01*
X006661Y001460D01*
X006612Y001465D01*
X006562Y001474D01*
X006514Y001487D01*
X006467Y001503D01*
X006421Y001524D01*
X006377Y001548D01*
X006335Y001575D01*
X006295Y001605D01*
X006258Y001639D01*
X006224Y001676D01*
X006192Y001715D01*
X006164Y001756D01*
X006139Y001800D01*
X006118Y001845D01*
X006101Y001892D01*
X006087Y001940D01*
X006077Y001989D01*
X006071Y002039D01*
X006069Y002089D01*
X003146Y015222D02*
X003148Y015249D01*
X003154Y015276D01*
X003163Y015302D01*
X003176Y015326D01*
X003192Y015349D01*
X003211Y015368D01*
X003233Y015385D01*
X003257Y015399D01*
X003282Y015409D01*
X003309Y015416D01*
X003336Y015419D01*
X003364Y015418D01*
X003391Y015413D01*
X003417Y015405D01*
X003441Y015393D01*
X003464Y015377D01*
X003485Y015359D01*
X003502Y015338D01*
X003517Y015314D01*
X003528Y015289D01*
X003536Y015263D01*
X003540Y015236D01*
X003540Y015208D01*
X003536Y015181D01*
X003528Y015155D01*
X003517Y015130D01*
X003502Y015106D01*
X003485Y015085D01*
X003464Y015067D01*
X003442Y015051D01*
X003417Y015039D01*
X003391Y015031D01*
X003364Y015026D01*
X003336Y015025D01*
X003309Y015028D01*
X003282Y015035D01*
X003257Y015045D01*
X003233Y015059D01*
X003211Y015076D01*
X003192Y015095D01*
X003176Y015118D01*
X003163Y015142D01*
X003154Y015168D01*
X003148Y015195D01*
X003146Y015222D01*
X003146Y016955D02*
X003148Y016982D01*
X003154Y017009D01*
X003163Y017035D01*
X003176Y017059D01*
X003192Y017082D01*
X003211Y017101D01*
X003233Y017118D01*
X003257Y017132D01*
X003282Y017142D01*
X003309Y017149D01*
X003336Y017152D01*
X003364Y017151D01*
X003391Y017146D01*
X003417Y017138D01*
X003441Y017126D01*
X003464Y017110D01*
X003485Y017092D01*
X003502Y017071D01*
X003517Y017047D01*
X003528Y017022D01*
X003536Y016996D01*
X003540Y016969D01*
X003540Y016941D01*
X003536Y016914D01*
X003528Y016888D01*
X003517Y016863D01*
X003502Y016839D01*
X003485Y016818D01*
X003464Y016800D01*
X003442Y016784D01*
X003417Y016772D01*
X003391Y016764D01*
X003364Y016759D01*
X003336Y016758D01*
X003309Y016761D01*
X003282Y016768D01*
X003257Y016778D01*
X003233Y016792D01*
X003211Y016809D01*
X003192Y016828D01*
X003176Y016851D01*
X003163Y016875D01*
X003154Y016901D01*
X003148Y016928D01*
X003146Y016955D01*
X006569Y021089D02*
X006571Y021139D01*
X006577Y021189D01*
X006587Y021238D01*
X006601Y021286D01*
X006618Y021333D01*
X006639Y021378D01*
X006664Y021422D01*
X006692Y021463D01*
X006724Y021502D01*
X006758Y021539D01*
X006795Y021573D01*
X006835Y021603D01*
X006877Y021630D01*
X006921Y021654D01*
X006967Y021675D01*
X007014Y021691D01*
X007062Y021704D01*
X007112Y021713D01*
X007161Y021718D01*
X007212Y021719D01*
X007262Y021716D01*
X007311Y021709D01*
X007360Y021698D01*
X007408Y021683D01*
X007454Y021665D01*
X007499Y021643D01*
X007542Y021617D01*
X007583Y021588D01*
X007622Y021556D01*
X007658Y021521D01*
X007690Y021483D01*
X007720Y021443D01*
X007747Y021400D01*
X007770Y021356D01*
X007789Y021310D01*
X007805Y021262D01*
X007817Y021213D01*
X007825Y021164D01*
X007829Y021114D01*
X007829Y021064D01*
X007825Y021014D01*
X007817Y020965D01*
X007805Y020916D01*
X007789Y020868D01*
X007770Y020822D01*
X007747Y020778D01*
X007720Y020735D01*
X007690Y020695D01*
X007658Y020657D01*
X007622Y020622D01*
X007583Y020590D01*
X007542Y020561D01*
X007499Y020535D01*
X007454Y020513D01*
X007408Y020495D01*
X007360Y020480D01*
X007311Y020469D01*
X007262Y020462D01*
X007212Y020459D01*
X007161Y020460D01*
X007112Y020465D01*
X007062Y020474D01*
X007014Y020487D01*
X006967Y020503D01*
X006921Y020524D01*
X006877Y020548D01*
X006835Y020575D01*
X006795Y020605D01*
X006758Y020639D01*
X006724Y020676D01*
X006692Y020715D01*
X006664Y020756D01*
X006639Y020800D01*
X006618Y020845D01*
X006601Y020892D01*
X006587Y020940D01*
X006577Y020989D01*
X006571Y021039D01*
X006569Y021089D01*
X026569Y015089D02*
X026571Y015139D01*
X026577Y015189D01*
X026587Y015238D01*
X026601Y015286D01*
X026618Y015333D01*
X026639Y015378D01*
X026664Y015422D01*
X026692Y015463D01*
X026724Y015502D01*
X026758Y015539D01*
X026795Y015573D01*
X026835Y015603D01*
X026877Y015630D01*
X026921Y015654D01*
X026967Y015675D01*
X027014Y015691D01*
X027062Y015704D01*
X027112Y015713D01*
X027161Y015718D01*
X027212Y015719D01*
X027262Y015716D01*
X027311Y015709D01*
X027360Y015698D01*
X027408Y015683D01*
X027454Y015665D01*
X027499Y015643D01*
X027542Y015617D01*
X027583Y015588D01*
X027622Y015556D01*
X027658Y015521D01*
X027690Y015483D01*
X027720Y015443D01*
X027747Y015400D01*
X027770Y015356D01*
X027789Y015310D01*
X027805Y015262D01*
X027817Y015213D01*
X027825Y015164D01*
X027829Y015114D01*
X027829Y015064D01*
X027825Y015014D01*
X027817Y014965D01*
X027805Y014916D01*
X027789Y014868D01*
X027770Y014822D01*
X027747Y014778D01*
X027720Y014735D01*
X027690Y014695D01*
X027658Y014657D01*
X027622Y014622D01*
X027583Y014590D01*
X027542Y014561D01*
X027499Y014535D01*
X027454Y014513D01*
X027408Y014495D01*
X027360Y014480D01*
X027311Y014469D01*
X027262Y014462D01*
X027212Y014459D01*
X027161Y014460D01*
X027112Y014465D01*
X027062Y014474D01*
X027014Y014487D01*
X026967Y014503D01*
X026921Y014524D01*
X026877Y014548D01*
X026835Y014575D01*
X026795Y014605D01*
X026758Y014639D01*
X026724Y014676D01*
X026692Y014715D01*
X026664Y014756D01*
X026639Y014800D01*
X026618Y014845D01*
X026601Y014892D01*
X026587Y014940D01*
X026577Y014989D01*
X026571Y015039D01*
X026569Y015089D01*
X026569Y004089D02*
X026571Y004139D01*
X026577Y004189D01*
X026587Y004238D01*
X026601Y004286D01*
X026618Y004333D01*
X026639Y004378D01*
X026664Y004422D01*
X026692Y004463D01*
X026724Y004502D01*
X026758Y004539D01*
X026795Y004573D01*
X026835Y004603D01*
X026877Y004630D01*
X026921Y004654D01*
X026967Y004675D01*
X027014Y004691D01*
X027062Y004704D01*
X027112Y004713D01*
X027161Y004718D01*
X027212Y004719D01*
X027262Y004716D01*
X027311Y004709D01*
X027360Y004698D01*
X027408Y004683D01*
X027454Y004665D01*
X027499Y004643D01*
X027542Y004617D01*
X027583Y004588D01*
X027622Y004556D01*
X027658Y004521D01*
X027690Y004483D01*
X027720Y004443D01*
X027747Y004400D01*
X027770Y004356D01*
X027789Y004310D01*
X027805Y004262D01*
X027817Y004213D01*
X027825Y004164D01*
X027829Y004114D01*
X027829Y004064D01*
X027825Y004014D01*
X027817Y003965D01*
X027805Y003916D01*
X027789Y003868D01*
X027770Y003822D01*
X027747Y003778D01*
X027720Y003735D01*
X027690Y003695D01*
X027658Y003657D01*
X027622Y003622D01*
X027583Y003590D01*
X027542Y003561D01*
X027499Y003535D01*
X027454Y003513D01*
X027408Y003495D01*
X027360Y003480D01*
X027311Y003469D01*
X027262Y003462D01*
X027212Y003459D01*
X027161Y003460D01*
X027112Y003465D01*
X027062Y003474D01*
X027014Y003487D01*
X026967Y003503D01*
X026921Y003524D01*
X026877Y003548D01*
X026835Y003575D01*
X026795Y003605D01*
X026758Y003639D01*
X026724Y003676D01*
X026692Y003715D01*
X026664Y003756D01*
X026639Y003800D01*
X026618Y003845D01*
X026601Y003892D01*
X026587Y003940D01*
X026577Y003989D01*
X026571Y004039D01*
X026569Y004089D01*
D11*
X026806Y001089D02*
X001593Y001089D01*
X001593Y001088D02*
X001554Y001090D01*
X001516Y001096D01*
X001479Y001105D01*
X001442Y001118D01*
X001407Y001135D01*
X001374Y001154D01*
X001343Y001177D01*
X001314Y001203D01*
X001288Y001232D01*
X001265Y001263D01*
X001246Y001296D01*
X001229Y001331D01*
X001216Y001368D01*
X001207Y001405D01*
X001201Y001443D01*
X001199Y001482D01*
X001199Y021695D01*
X001201Y021734D01*
X001207Y021772D01*
X001216Y021809D01*
X001229Y021846D01*
X001246Y021881D01*
X001265Y021914D01*
X001288Y021945D01*
X001314Y021974D01*
X001343Y022000D01*
X001374Y022023D01*
X001407Y022042D01*
X001442Y022059D01*
X001479Y022072D01*
X001516Y022081D01*
X001554Y022087D01*
X001593Y022089D01*
X026599Y022089D01*
X027199Y021489D01*
X027199Y016989D01*
X028199Y015989D01*
X028199Y003089D01*
X027199Y002089D01*
X027199Y001482D01*
X027200Y001482D02*
X027198Y001443D01*
X027192Y001405D01*
X027183Y001368D01*
X027170Y001331D01*
X027153Y001296D01*
X027134Y001263D01*
X027111Y001232D01*
X027085Y001203D01*
X027056Y001177D01*
X027025Y001154D01*
X026992Y001135D01*
X026957Y001118D01*
X026920Y001105D01*
X026883Y001096D01*
X026845Y001090D01*
X026806Y001088D01*
X026749Y012589D02*
X026749Y013589D01*
D12*
X025199Y021089D03*
X024199Y021089D03*
X023199Y021089D03*
X022199Y021089D03*
X021199Y021089D03*
X020199Y021089D03*
X019199Y021089D03*
X016599Y021089D03*
X015599Y021089D03*
X014599Y021089D03*
X013599Y021089D03*
X012599Y021089D03*
X011599Y021089D03*
X010599Y021089D03*
X009599Y021089D03*
X008599Y021089D03*
X013949Y006589D03*
X014949Y006589D03*
X015949Y006589D03*
X016199Y002089D03*
X017199Y002089D03*
X018199Y002089D03*
X019199Y002089D03*
X021199Y002089D03*
X022199Y002089D03*
X023199Y002089D03*
X024199Y002089D03*
X025199Y002089D03*
X026199Y002089D03*
X015199Y002089D03*
X014199Y002089D03*
D13*
X017599Y021089D03*
X026199Y021089D03*
D14*
X026249Y013089D03*
X027249Y013089D03*
X027249Y012089D03*
X026249Y012089D03*
X026249Y011089D03*
X027249Y011089D03*
X025199Y006589D03*
X024199Y006589D03*
X023199Y006589D03*
X023199Y005589D03*
X024199Y005589D03*
X025199Y005589D03*
D15*
X025749Y005593D02*
X027969Y005593D01*
X027969Y005475D02*
X025749Y005475D01*
X025749Y005361D02*
X025749Y005816D01*
X025477Y006088D01*
X025749Y006361D01*
X025749Y006816D01*
X025427Y007138D01*
X024972Y007138D01*
X024699Y006866D01*
X024427Y007138D01*
X023972Y007138D01*
X023699Y006866D01*
X023427Y007138D01*
X022989Y007138D01*
X024485Y008635D01*
X024553Y008703D01*
X024589Y008791D01*
X024589Y011012D01*
X024650Y011038D01*
X024750Y011137D01*
X024804Y011268D01*
X024804Y011409D01*
X024750Y011540D01*
X024650Y011639D01*
X024607Y011657D01*
X025209Y012259D01*
X025209Y011841D01*
X025246Y011753D01*
X025313Y011685D01*
X025313Y011685D01*
X025699Y011299D01*
X025699Y010861D01*
X026022Y010539D01*
X026477Y010539D01*
X026764Y010825D01*
X027030Y010559D01*
X027209Y010559D01*
X027209Y011048D01*
X027289Y011048D01*
X027289Y010559D01*
X027469Y010559D01*
X027779Y010869D01*
X027779Y011048D01*
X027290Y011048D01*
X027290Y011129D01*
X027779Y011129D01*
X027779Y011308D01*
X027513Y011574D01*
X027799Y011861D01*
X027799Y012316D01*
X027527Y012589D01*
X027799Y012861D01*
X027799Y013316D01*
X027477Y013638D01*
X027022Y013638D01*
X026989Y013606D01*
X026989Y014299D01*
X027038Y014279D01*
X027360Y014279D01*
X027658Y014402D01*
X027886Y014630D01*
X027969Y014831D01*
X027969Y004346D01*
X027886Y004547D01*
X027658Y004775D01*
X027360Y004898D01*
X027038Y004898D01*
X026741Y004775D01*
X026513Y004547D01*
X026389Y004250D01*
X026389Y003927D01*
X026513Y003630D01*
X026741Y003402D01*
X027038Y003279D01*
X027360Y003279D01*
X027658Y003402D01*
X027886Y003630D01*
X027969Y003831D01*
X027969Y003184D01*
X027104Y002318D01*
X026969Y002184D01*
X026969Y001577D01*
X026969Y001482D01*
X026966Y001450D01*
X026942Y001391D01*
X026897Y001346D01*
X026838Y001322D01*
X026806Y001318D01*
X006957Y001318D01*
X007158Y001402D01*
X007386Y001630D01*
X007509Y001927D01*
X007509Y002250D01*
X007386Y002547D01*
X007158Y002775D01*
X006860Y002898D01*
X006538Y002898D01*
X006241Y002775D01*
X006013Y002547D01*
X005889Y002250D01*
X005889Y001927D01*
X006013Y001630D01*
X006241Y001402D01*
X006442Y001318D01*
X001688Y001318D01*
X001593Y001318D01*
X001561Y001322D01*
X001502Y001346D01*
X001457Y001391D01*
X001432Y001450D01*
X001429Y001482D01*
X001429Y021600D01*
X001429Y021695D01*
X001432Y021727D01*
X001457Y021786D01*
X001502Y021831D01*
X001561Y021855D01*
X001593Y021859D01*
X006942Y021859D01*
X006741Y021775D01*
X006513Y021547D01*
X006389Y021250D01*
X006389Y020927D01*
X006513Y020630D01*
X006741Y020402D01*
X007038Y020279D01*
X007360Y020279D01*
X007658Y020402D01*
X007886Y020630D01*
X008009Y020927D01*
X008009Y021250D01*
X007886Y021547D01*
X007658Y021775D01*
X007457Y021859D01*
X026504Y021859D01*
X026969Y021393D01*
X026969Y016893D01*
X027104Y016759D01*
X027969Y015893D01*
X027969Y015346D01*
X027886Y015547D01*
X027658Y015775D01*
X027360Y015898D01*
X027038Y015898D01*
X026741Y015775D01*
X026513Y015547D01*
X026389Y015250D01*
X026389Y014988D01*
X025689Y015688D01*
X025689Y018536D01*
X025653Y018624D01*
X025585Y018692D01*
X024239Y020038D01*
X024403Y020203D01*
X024439Y020291D01*
X024439Y020386D01*
X024439Y020593D01*
X024511Y020622D01*
X024666Y020777D01*
X024699Y020858D01*
X024733Y020777D01*
X024888Y020622D01*
X025090Y020539D01*
X025309Y020539D01*
X025511Y020622D01*
X025649Y020761D01*
X025649Y020644D01*
X025755Y020539D01*
X026644Y020539D01*
X026749Y020644D01*
X026749Y021533D01*
X026644Y021638D01*
X025755Y021638D01*
X025649Y021533D01*
X025649Y021416D01*
X025511Y021555D01*
X025309Y021638D01*
X025090Y021638D01*
X024888Y021555D01*
X024733Y021400D01*
X024699Y021319D01*
X024666Y021400D01*
X024511Y021555D01*
X024309Y021638D01*
X024090Y021638D01*
X023888Y021555D01*
X023733Y021400D01*
X023699Y021319D01*
X023666Y021400D01*
X023511Y021555D01*
X023309Y021638D01*
X023090Y021638D01*
X022888Y021555D01*
X022733Y021400D01*
X022699Y021319D01*
X022666Y021400D01*
X022511Y021555D01*
X022309Y021638D01*
X022090Y021638D01*
X021888Y021555D01*
X021733Y021400D01*
X021699Y021319D01*
X021666Y021400D01*
X021511Y021555D01*
X021309Y021638D01*
X021090Y021638D01*
X020888Y021555D01*
X020733Y021400D01*
X020699Y021319D01*
X020666Y021400D01*
X020511Y021555D01*
X020309Y021638D01*
X020090Y021638D01*
X019888Y021555D01*
X019733Y021400D01*
X019699Y021319D01*
X019666Y021400D01*
X019511Y021555D01*
X019309Y021638D01*
X019090Y021638D01*
X018888Y021555D01*
X018733Y021400D01*
X018649Y021198D01*
X018649Y020979D01*
X018733Y020777D01*
X018888Y020622D01*
X018994Y020578D01*
X018084Y020578D01*
X018149Y020644D01*
X018149Y021533D01*
X018044Y021638D01*
X017155Y021638D01*
X017049Y021533D01*
X017049Y021416D01*
X016911Y021555D01*
X016709Y021638D01*
X016490Y021638D01*
X016288Y021555D01*
X016133Y021400D01*
X016099Y021319D01*
X016066Y021400D01*
X015911Y021555D01*
X015709Y021638D01*
X015490Y021638D01*
X015288Y021555D01*
X015133Y021400D01*
X015099Y021319D01*
X015066Y021400D01*
X014911Y021555D01*
X014709Y021638D01*
X014490Y021638D01*
X014288Y021555D01*
X014133Y021400D01*
X014099Y021319D01*
X014066Y021400D01*
X013911Y021555D01*
X013709Y021638D01*
X013490Y021638D01*
X013288Y021555D01*
X013133Y021400D01*
X013099Y021319D01*
X013066Y021400D01*
X012911Y021555D01*
X012709Y021638D01*
X012490Y021638D01*
X012288Y021555D01*
X012133Y021400D01*
X012089Y021294D01*
X012053Y021366D01*
X012004Y021434D01*
X011945Y021493D01*
X011877Y021542D01*
X011803Y021580D01*
X011723Y021605D01*
X011641Y021618D01*
X011639Y021618D01*
X011639Y021129D01*
X011559Y021129D01*
X011559Y021618D01*
X011558Y021618D01*
X011475Y021605D01*
X011396Y021580D01*
X011322Y021542D01*
X011254Y021493D01*
X011195Y021434D01*
X011146Y021366D01*
X011109Y021294D01*
X011066Y021400D01*
X010911Y021555D01*
X010709Y021638D01*
X010490Y021638D01*
X010288Y021555D01*
X010133Y021400D01*
X010099Y021319D01*
X010066Y021400D01*
X009911Y021555D01*
X009709Y021638D01*
X009490Y021638D01*
X009288Y021555D01*
X009133Y021400D01*
X009099Y021319D01*
X009066Y021400D01*
X008911Y021555D01*
X008709Y021638D01*
X008490Y021638D01*
X008288Y021555D01*
X008133Y021400D01*
X008049Y021198D01*
X008049Y020979D01*
X008133Y020777D01*
X008288Y020622D01*
X008359Y020593D01*
X008359Y019486D01*
X008359Y019391D01*
X008396Y019303D01*
X008746Y018953D01*
X008813Y018885D01*
X008902Y018849D01*
X012150Y018849D01*
X012646Y018353D01*
X012713Y018285D01*
X012802Y018249D01*
X016552Y018249D01*
X016647Y018249D01*
X016735Y018285D01*
X016799Y018349D01*
X016961Y018349D01*
X016944Y018309D01*
X016944Y018168D01*
X016998Y018037D01*
X017098Y017938D01*
X017229Y017884D01*
X017370Y017884D01*
X017500Y017938D01*
X017600Y018037D01*
X017626Y018099D01*
X022750Y018099D01*
X023459Y017389D01*
X023459Y014436D01*
X023459Y014341D01*
X023496Y014253D01*
X023859Y013889D01*
X023859Y012988D01*
X022963Y012092D01*
X022896Y012024D01*
X022859Y011936D01*
X022859Y010185D01*
X022748Y010139D01*
X022648Y010040D01*
X022594Y009909D01*
X022594Y009768D01*
X022648Y009637D01*
X022748Y009538D01*
X022879Y009484D01*
X023020Y009484D01*
X023109Y009521D01*
X023109Y009338D01*
X021152Y007380D01*
X021120Y007393D01*
X020979Y007393D01*
X020848Y007339D01*
X020787Y007278D01*
X020699Y007278D01*
X020289Y007688D01*
X020289Y012491D01*
X020289Y012586D01*
X020253Y012674D01*
X020154Y012773D01*
X020154Y012794D01*
X020554Y012395D01*
X020548Y012390D01*
X020494Y012259D01*
X020494Y012118D01*
X020548Y011987D01*
X020648Y011888D01*
X020779Y011834D01*
X020920Y011834D01*
X020944Y011844D01*
X020944Y011718D01*
X020998Y011587D01*
X021098Y011488D01*
X021229Y011434D01*
X021370Y011434D01*
X021500Y011488D01*
X021600Y011587D01*
X021654Y011718D01*
X021654Y011859D01*
X021600Y011990D01*
X021539Y012051D01*
X021539Y012436D01*
X021503Y012524D01*
X021435Y012592D01*
X019985Y014042D01*
X019897Y014078D01*
X019802Y014078D01*
X012799Y014078D01*
X011435Y015442D01*
X011347Y015478D01*
X011252Y015478D01*
X008399Y015478D01*
X008085Y015792D01*
X007997Y015828D01*
X007961Y015828D01*
X007900Y015889D01*
X007770Y015943D01*
X007629Y015943D01*
X007498Y015889D01*
X007398Y015790D01*
X007344Y015659D01*
X007344Y015518D01*
X007398Y015387D01*
X007498Y015288D01*
X007629Y015234D01*
X007770Y015234D01*
X007900Y015288D01*
X007906Y015293D01*
X008096Y015103D01*
X008110Y015089D01*
X008096Y015074D01*
X007906Y014884D01*
X007900Y014889D01*
X007770Y014943D01*
X007629Y014943D01*
X007498Y014889D01*
X007398Y014790D01*
X007344Y014659D01*
X007344Y014518D01*
X007398Y014387D01*
X007498Y014288D01*
X007629Y014234D01*
X007770Y014234D01*
X007900Y014288D01*
X007961Y014349D01*
X007997Y014349D01*
X008085Y014385D01*
X008399Y014699D01*
X011100Y014699D01*
X012346Y013453D01*
X012346Y013453D01*
X012413Y013385D01*
X012502Y013349D01*
X016657Y013349D01*
X016648Y013340D01*
X016594Y013209D01*
X016594Y013068D01*
X016648Y012937D01*
X016709Y012876D01*
X016709Y012188D01*
X016350Y011828D01*
X015211Y011828D01*
X015150Y011889D01*
X015020Y011943D01*
X014879Y011943D01*
X014748Y011889D01*
X014648Y011790D01*
X014594Y011659D01*
X014594Y011518D01*
X014648Y011387D01*
X014748Y011288D01*
X014879Y011234D01*
X015020Y011234D01*
X015150Y011288D01*
X015211Y011349D01*
X016497Y011349D01*
X016585Y011385D01*
X016653Y011453D01*
X017153Y011953D01*
X017189Y012041D01*
X017189Y012136D01*
X017189Y012876D01*
X017250Y012937D01*
X017304Y013068D01*
X017304Y013209D01*
X017250Y013340D01*
X017241Y013349D01*
X019600Y013349D01*
X019805Y013143D01*
X019729Y013143D01*
X019598Y013089D01*
X019498Y012990D01*
X019444Y012859D01*
X019444Y012718D01*
X019455Y012693D01*
X019379Y012693D01*
X019248Y012639D01*
X019148Y012540D01*
X019094Y012409D01*
X019094Y012268D01*
X019148Y012137D01*
X019248Y012038D01*
X019379Y011984D01*
X019465Y011984D01*
X019559Y011889D01*
X019559Y007441D01*
X019596Y007353D01*
X019663Y007285D01*
X020446Y006503D01*
X020513Y006435D01*
X020602Y006399D01*
X021237Y006399D01*
X021298Y006338D01*
X021429Y006284D01*
X021570Y006284D01*
X021700Y006338D01*
X021709Y006347D01*
X021709Y006188D01*
X021600Y006078D01*
X016155Y006078D01*
X016261Y006122D01*
X016416Y006277D01*
X016499Y006479D01*
X016499Y006698D01*
X016470Y006769D01*
X016953Y007253D01*
X019696Y007253D01*
X019588Y007371D02*
X016989Y007371D01*
X016989Y007341D02*
X016989Y007436D01*
X016989Y010626D01*
X017050Y010687D01*
X017104Y010818D01*
X017104Y010959D01*
X017050Y011090D01*
X016950Y011189D01*
X016820Y011243D01*
X016679Y011243D01*
X016548Y011189D01*
X016448Y011090D01*
X016394Y010959D01*
X016394Y010818D01*
X016448Y010687D01*
X016509Y010626D01*
X016509Y007488D01*
X016130Y007109D01*
X016059Y007138D01*
X015840Y007138D01*
X015638Y007055D01*
X015483Y006900D01*
X015449Y006819D01*
X015416Y006900D01*
X015261Y007055D01*
X015059Y007138D01*
X014840Y007138D01*
X014638Y007055D01*
X014483Y006900D01*
X014449Y006819D01*
X014416Y006900D01*
X014261Y007055D01*
X014059Y007138D01*
X013840Y007138D01*
X013638Y007055D01*
X013483Y006900D01*
X013399Y006698D01*
X013399Y006479D01*
X013483Y006277D01*
X013638Y006122D01*
X013709Y006093D01*
X013709Y006041D01*
X013746Y005953D01*
X013813Y005885D01*
X013813Y005885D01*
X013996Y005703D01*
X013996Y005703D01*
X014063Y005635D01*
X014152Y005599D01*
X014970Y005599D01*
X014813Y005442D01*
X014746Y005374D01*
X014709Y005286D01*
X014709Y003438D01*
X014063Y002792D01*
X013996Y002724D01*
X013959Y002636D01*
X013959Y002584D01*
X013888Y002555D01*
X013733Y002400D01*
X013649Y002198D01*
X013649Y001979D01*
X013733Y001777D01*
X013888Y001622D01*
X014090Y001539D01*
X014309Y001539D01*
X014511Y001622D01*
X014666Y001777D01*
X014699Y001858D01*
X014733Y001777D01*
X014888Y001622D01*
X015090Y001539D01*
X015309Y001539D01*
X015511Y001622D01*
X015666Y001777D01*
X015699Y001858D01*
X015733Y001777D01*
X015888Y001622D01*
X016090Y001539D01*
X016309Y001539D01*
X016511Y001622D01*
X016666Y001777D01*
X016709Y001883D01*
X016746Y001811D01*
X016795Y001743D01*
X016854Y001684D01*
X016922Y001635D01*
X016996Y001597D01*
X017075Y001572D01*
X017158Y001559D01*
X017159Y001559D01*
X017159Y002048D01*
X017239Y002048D01*
X017239Y001559D01*
X017241Y001559D01*
X017323Y001572D01*
X017403Y001597D01*
X017477Y001635D01*
X017545Y001684D01*
X017604Y001743D01*
X017653Y001811D01*
X017691Y001885D01*
X017699Y001912D01*
X017708Y001885D01*
X017746Y001811D01*
X017795Y001743D01*
X017854Y001684D01*
X017922Y001635D01*
X017996Y001597D01*
X018075Y001572D01*
X018158Y001559D01*
X018159Y001559D01*
X018159Y002048D01*
X018239Y002048D01*
X018239Y001559D01*
X018241Y001559D01*
X018323Y001572D01*
X018403Y001597D01*
X018477Y001635D01*
X018545Y001684D01*
X018604Y001743D01*
X018653Y001811D01*
X018689Y001883D01*
X018733Y001777D01*
X018888Y001622D01*
X019090Y001539D01*
X019309Y001539D01*
X019511Y001622D01*
X019666Y001777D01*
X019749Y001979D01*
X019749Y002198D01*
X019666Y002400D01*
X019511Y002555D01*
X019309Y002638D01*
X019090Y002638D01*
X018888Y002555D01*
X018733Y002400D01*
X018689Y002294D01*
X018653Y002366D01*
X018604Y002434D01*
X018545Y002493D01*
X018477Y002542D01*
X018403Y002580D01*
X018323Y002605D01*
X018241Y002618D01*
X018239Y002618D01*
X018239Y002129D01*
X018159Y002129D01*
X018159Y002618D01*
X018158Y002618D01*
X018075Y002605D01*
X017996Y002580D01*
X017922Y002542D01*
X017854Y002493D01*
X017795Y002434D01*
X017746Y002366D01*
X017708Y002292D01*
X017699Y002265D01*
X017691Y002292D01*
X017653Y002366D01*
X017604Y002434D01*
X017545Y002493D01*
X017477Y002542D01*
X017403Y002580D01*
X017323Y002605D01*
X017241Y002618D01*
X017239Y002618D01*
X017239Y002129D01*
X017159Y002129D01*
X017159Y002618D01*
X017158Y002618D01*
X017075Y002605D01*
X016996Y002580D01*
X016922Y002542D01*
X016854Y002493D01*
X016795Y002434D01*
X016746Y002366D01*
X016709Y002294D01*
X016666Y002400D01*
X016511Y002555D01*
X016309Y002638D01*
X016090Y002638D01*
X015888Y002555D01*
X015733Y002400D01*
X015699Y002319D01*
X015666Y002400D01*
X015511Y002555D01*
X015439Y002584D01*
X015439Y004989D01*
X015549Y005099D01*
X021947Y005099D01*
X022035Y005135D01*
X022103Y005203D01*
X022649Y005749D01*
X022649Y005361D01*
X022972Y005039D01*
X023427Y005039D01*
X023699Y005311D01*
X023972Y005039D01*
X024427Y005039D01*
X024699Y005311D01*
X024972Y005039D01*
X025427Y005039D01*
X025749Y005361D01*
X025745Y005356D02*
X027969Y005356D01*
X027969Y005238D02*
X025626Y005238D01*
X025508Y005119D02*
X027969Y005119D01*
X027969Y005000D02*
X015451Y005000D01*
X015439Y004882D02*
X026998Y004882D01*
X026729Y004763D02*
X015439Y004763D01*
X015439Y004645D02*
X026610Y004645D01*
X026504Y004526D02*
X015439Y004526D01*
X015439Y004408D02*
X026455Y004408D01*
X026406Y004289D02*
X015439Y004289D01*
X015439Y004171D02*
X026389Y004171D01*
X026389Y004052D02*
X015439Y004052D01*
X015439Y003934D02*
X026389Y003934D01*
X026436Y003815D02*
X015439Y003815D01*
X015439Y003696D02*
X026485Y003696D01*
X026565Y003578D02*
X015439Y003578D01*
X015439Y003459D02*
X026683Y003459D01*
X026888Y003341D02*
X015439Y003341D01*
X015439Y003222D02*
X027969Y003222D01*
X027969Y003341D02*
X027511Y003341D01*
X027716Y003459D02*
X027969Y003459D01*
X027969Y003578D02*
X027834Y003578D01*
X027914Y003696D02*
X027969Y003696D01*
X027963Y003815D02*
X027969Y003815D01*
X027944Y004408D02*
X027969Y004408D01*
X027969Y004526D02*
X027895Y004526D01*
X027969Y004645D02*
X027788Y004645D01*
X027670Y004763D02*
X027969Y004763D01*
X027969Y004882D02*
X027400Y004882D01*
X027969Y005712D02*
X025749Y005712D01*
X025735Y005830D02*
X027969Y005830D01*
X027969Y005949D02*
X025617Y005949D01*
X025498Y006067D02*
X027969Y006067D01*
X027969Y006186D02*
X025575Y006186D01*
X025693Y006304D02*
X027969Y006304D01*
X027969Y006423D02*
X025749Y006423D01*
X025749Y006541D02*
X027969Y006541D01*
X027969Y006660D02*
X025749Y006660D01*
X025749Y006779D02*
X027969Y006779D01*
X027969Y006897D02*
X025669Y006897D01*
X025550Y007016D02*
X027969Y007016D01*
X027969Y007134D02*
X025431Y007134D01*
X024967Y007134D02*
X024431Y007134D01*
X024550Y007016D02*
X024849Y007016D01*
X024730Y006897D02*
X024669Y006897D01*
X023967Y007134D02*
X023431Y007134D01*
X023550Y007016D02*
X023849Y007016D01*
X023730Y006897D02*
X023669Y006897D01*
X023222Y007371D02*
X027969Y007371D01*
X027969Y007253D02*
X023103Y007253D01*
X023340Y007490D02*
X027969Y007490D01*
X027969Y007608D02*
X023459Y007608D01*
X023577Y007727D02*
X027969Y007727D01*
X027969Y007845D02*
X023696Y007845D01*
X023814Y007964D02*
X027969Y007964D01*
X027969Y008083D02*
X023933Y008083D01*
X024051Y008201D02*
X027969Y008201D01*
X027969Y008320D02*
X024170Y008320D01*
X024288Y008438D02*
X027969Y008438D01*
X027969Y008557D02*
X024407Y008557D01*
X024526Y008675D02*
X027969Y008675D01*
X027969Y008794D02*
X024589Y008794D01*
X024589Y008912D02*
X027969Y008912D01*
X027969Y009031D02*
X024589Y009031D01*
X024589Y009149D02*
X027969Y009149D01*
X027969Y009268D02*
X024589Y009268D01*
X024589Y009387D02*
X027969Y009387D01*
X027969Y009505D02*
X024589Y009505D01*
X024589Y009624D02*
X027969Y009624D01*
X027969Y009742D02*
X024589Y009742D01*
X024589Y009861D02*
X027969Y009861D01*
X027969Y009979D02*
X024589Y009979D01*
X024589Y010098D02*
X027969Y010098D01*
X027969Y010216D02*
X024589Y010216D01*
X024589Y010335D02*
X027969Y010335D01*
X027969Y010453D02*
X024589Y010453D01*
X024589Y010572D02*
X025988Y010572D01*
X025870Y010691D02*
X024589Y010691D01*
X024589Y010809D02*
X025751Y010809D01*
X025699Y010928D02*
X024589Y010928D01*
X024659Y011046D02*
X025699Y011046D01*
X025699Y011165D02*
X024762Y011165D01*
X024804Y011283D02*
X025699Y011283D01*
X025597Y011402D02*
X024804Y011402D01*
X024758Y011520D02*
X025478Y011520D01*
X025360Y011639D02*
X024651Y011639D01*
X024708Y011757D02*
X025244Y011757D01*
X025209Y011876D02*
X024826Y011876D01*
X024945Y011994D02*
X025209Y011994D01*
X025209Y012113D02*
X025063Y012113D01*
X025182Y012232D02*
X025209Y012232D01*
X025449Y012539D02*
X025449Y011889D01*
X026249Y011089D01*
X026629Y010691D02*
X026898Y010691D01*
X026779Y010809D02*
X026748Y010809D01*
X026511Y010572D02*
X027016Y010572D01*
X027209Y010572D02*
X027289Y010572D01*
X027289Y010691D02*
X027209Y010691D01*
X027209Y010809D02*
X027289Y010809D01*
X027289Y010928D02*
X027209Y010928D01*
X027209Y011046D02*
X027289Y011046D01*
X027601Y010691D02*
X027969Y010691D01*
X027969Y010809D02*
X027719Y010809D01*
X027779Y010928D02*
X027969Y010928D01*
X027969Y011046D02*
X027779Y011046D01*
X027779Y011165D02*
X027969Y011165D01*
X027969Y011283D02*
X027779Y011283D01*
X027686Y011402D02*
X027969Y011402D01*
X027969Y011520D02*
X027567Y011520D01*
X027577Y011639D02*
X027969Y011639D01*
X027969Y011757D02*
X027696Y011757D01*
X027799Y011876D02*
X027969Y011876D01*
X027969Y011994D02*
X027799Y011994D01*
X027799Y012113D02*
X027969Y012113D01*
X027969Y012232D02*
X027799Y012232D01*
X027766Y012350D02*
X027969Y012350D01*
X027969Y012469D02*
X027647Y012469D01*
X027528Y012587D02*
X027969Y012587D01*
X027969Y012706D02*
X027644Y012706D01*
X027763Y012824D02*
X027969Y012824D01*
X027969Y012943D02*
X027799Y012943D01*
X027799Y013061D02*
X027969Y013061D01*
X027969Y013180D02*
X027799Y013180D01*
X027799Y013298D02*
X027969Y013298D01*
X027969Y013417D02*
X027699Y013417D01*
X027580Y013536D02*
X027969Y013536D01*
X027969Y013654D02*
X026989Y013654D01*
X026989Y013773D02*
X027969Y013773D01*
X027969Y013891D02*
X026989Y013891D01*
X026989Y014010D02*
X027969Y014010D01*
X027969Y014128D02*
X026989Y014128D01*
X026989Y014247D02*
X027969Y014247D01*
X027969Y014365D02*
X027570Y014365D01*
X027740Y014484D02*
X027969Y014484D01*
X027969Y014602D02*
X027859Y014602D01*
X027924Y014721D02*
X027969Y014721D01*
X027934Y015432D02*
X027969Y015432D01*
X027969Y015551D02*
X027882Y015551D01*
X027969Y015669D02*
X027764Y015669D01*
X027627Y015788D02*
X027969Y015788D01*
X027956Y015906D02*
X025689Y015906D01*
X025689Y015788D02*
X026771Y015788D01*
X026635Y015669D02*
X025708Y015669D01*
X025826Y015551D02*
X026516Y015551D01*
X026465Y015432D02*
X025945Y015432D01*
X026064Y015314D02*
X026416Y015314D01*
X026389Y015195D02*
X026182Y015195D01*
X026301Y015077D02*
X026389Y015077D01*
X026249Y014439D02*
X025199Y015489D01*
X025199Y018389D01*
X023999Y019589D01*
X015949Y019589D01*
X015849Y019489D01*
X014199Y019489D01*
X013599Y020089D01*
X013599Y021089D01*
X013211Y021478D02*
X012988Y021478D01*
X013082Y021359D02*
X013116Y021359D01*
X013389Y021596D02*
X012810Y021596D01*
X012389Y021596D02*
X011751Y021596D01*
X011639Y021596D02*
X011559Y021596D01*
X011448Y021596D02*
X010810Y021596D01*
X010988Y021478D02*
X011239Y021478D01*
X011143Y021359D02*
X011082Y021359D01*
X011109Y020883D02*
X011146Y020811D01*
X011195Y020743D01*
X011254Y020684D01*
X011322Y020635D01*
X011396Y020597D01*
X011475Y020572D01*
X011558Y020559D01*
X011559Y020559D01*
X011559Y021048D01*
X011639Y021048D01*
X011639Y020559D01*
X011641Y020559D01*
X011723Y020572D01*
X011803Y020597D01*
X011877Y020635D01*
X011945Y020684D01*
X012004Y020743D01*
X012053Y020811D01*
X012089Y020883D01*
X012133Y020777D01*
X012288Y020622D01*
X012359Y020593D01*
X012359Y019836D01*
X012359Y019828D01*
X010496Y019828D01*
X010450Y019940D01*
X010350Y020039D01*
X010220Y020093D01*
X010079Y020093D01*
X009948Y020039D01*
X009848Y019940D01*
X009839Y019918D01*
X009839Y020593D01*
X009911Y020622D01*
X010066Y020777D01*
X010099Y020858D01*
X010133Y020777D01*
X010288Y020622D01*
X010490Y020539D01*
X010709Y020539D01*
X010911Y020622D01*
X011066Y020777D01*
X011109Y020883D01*
X011055Y020767D02*
X011178Y020767D01*
X011304Y020648D02*
X010937Y020648D01*
X011559Y020648D02*
X011639Y020648D01*
X011639Y020767D02*
X011559Y020767D01*
X011559Y020885D02*
X011639Y020885D01*
X011639Y021004D02*
X011559Y021004D01*
X011559Y021241D02*
X011639Y021241D01*
X011639Y021359D02*
X011559Y021359D01*
X011559Y021478D02*
X011639Y021478D01*
X011959Y021478D02*
X012211Y021478D01*
X012116Y021359D02*
X012056Y021359D01*
X012599Y021089D02*
X012599Y019789D01*
X013149Y019239D01*
X016099Y019239D01*
X016199Y019339D01*
X023899Y019339D01*
X024949Y018289D01*
X024949Y015389D01*
X025699Y014639D01*
X025699Y012639D01*
X026249Y012089D01*
X026749Y012589D02*
X027249Y012089D01*
X026249Y013089D02*
X026249Y014439D01*
X026749Y014289D02*
X026749Y013589D01*
X026749Y014289D02*
X025449Y015589D01*
X025449Y018489D01*
X024099Y019839D01*
X015699Y019839D01*
X015599Y019739D01*
X014549Y019739D01*
X014349Y019939D01*
X014349Y020339D01*
X014599Y020589D01*
X014599Y021089D01*
X014211Y021478D02*
X013988Y021478D01*
X014082Y021359D02*
X014116Y021359D01*
X014389Y021596D02*
X013810Y021596D01*
X014810Y021596D02*
X015389Y021596D01*
X015211Y021478D02*
X014988Y021478D01*
X015082Y021359D02*
X015116Y021359D01*
X015810Y021596D02*
X016389Y021596D01*
X016211Y021478D02*
X015988Y021478D01*
X016082Y021359D02*
X016116Y021359D01*
X016810Y021596D02*
X017113Y021596D01*
X017049Y021478D02*
X016988Y021478D01*
X018086Y021596D02*
X018989Y021596D01*
X018811Y021478D02*
X018149Y021478D01*
X018149Y021359D02*
X018716Y021359D01*
X018667Y021241D02*
X018149Y021241D01*
X018149Y021122D02*
X018649Y021122D01*
X018649Y021004D02*
X018149Y021004D01*
X018149Y020885D02*
X018688Y020885D01*
X018743Y020767D02*
X018149Y020767D01*
X018149Y020648D02*
X018862Y020648D01*
X019682Y021359D02*
X019716Y021359D01*
X019811Y021478D02*
X019588Y021478D01*
X019410Y021596D02*
X019989Y021596D01*
X020410Y021596D02*
X020989Y021596D01*
X020811Y021478D02*
X020588Y021478D01*
X020682Y021359D02*
X020716Y021359D01*
X021199Y021089D02*
X021199Y020589D01*
X020949Y020339D01*
X015349Y020339D01*
X015099Y020589D01*
X014799Y020139D02*
X014849Y020089D01*
X023949Y020089D01*
X024199Y020339D01*
X024199Y021089D01*
X023811Y021478D02*
X023588Y021478D01*
X023682Y021359D02*
X023716Y021359D01*
X023989Y021596D02*
X023410Y021596D01*
X022989Y021596D02*
X022410Y021596D01*
X022588Y021478D02*
X022811Y021478D01*
X022716Y021359D02*
X022682Y021359D01*
X021989Y021596D02*
X021410Y021596D01*
X021588Y021478D02*
X021811Y021478D01*
X021716Y021359D02*
X021682Y021359D01*
X024256Y020055D02*
X026969Y020055D01*
X026969Y019937D02*
X024340Y019937D01*
X024459Y019818D02*
X026969Y019818D01*
X026969Y019700D02*
X024577Y019700D01*
X024696Y019581D02*
X026969Y019581D01*
X026969Y019463D02*
X024815Y019463D01*
X024933Y019344D02*
X026969Y019344D01*
X026969Y019226D02*
X025052Y019226D01*
X025170Y019107D02*
X026969Y019107D01*
X026969Y018989D02*
X025289Y018989D01*
X025407Y018870D02*
X026969Y018870D01*
X026969Y018751D02*
X025526Y018751D01*
X025644Y018633D02*
X026969Y018633D01*
X026969Y018514D02*
X025689Y018514D01*
X025689Y018396D02*
X026969Y018396D01*
X026969Y018277D02*
X025689Y018277D01*
X025689Y018159D02*
X026969Y018159D01*
X026969Y018040D02*
X025689Y018040D01*
X025689Y017922D02*
X026969Y017922D01*
X026969Y017803D02*
X025689Y017803D01*
X025689Y017685D02*
X026969Y017685D01*
X026969Y017566D02*
X025689Y017566D01*
X025689Y017447D02*
X026969Y017447D01*
X026969Y017329D02*
X025689Y017329D01*
X025689Y017210D02*
X026969Y017210D01*
X026969Y017092D02*
X025689Y017092D01*
X025689Y016973D02*
X026969Y016973D01*
X027008Y016855D02*
X025689Y016855D01*
X025689Y016736D02*
X027126Y016736D01*
X027104Y016759D02*
X027104Y016759D01*
X027245Y016618D02*
X025689Y016618D01*
X025689Y016499D02*
X027363Y016499D01*
X027482Y016381D02*
X025689Y016381D01*
X025689Y016262D02*
X027601Y016262D01*
X027719Y016144D02*
X025689Y016144D01*
X025689Y016025D02*
X027838Y016025D01*
X025199Y014789D02*
X025199Y014589D01*
X025199Y014789D02*
X024699Y015289D01*
X024699Y018039D01*
X023799Y018939D01*
X023149Y019089D02*
X024449Y017789D01*
X024449Y015189D01*
X024699Y014939D01*
X024699Y014739D01*
X024699Y014539D01*
X025449Y013789D01*
X025449Y012839D01*
X025299Y012689D01*
X025449Y012539D01*
X025449Y012839D01*
X025299Y012689D02*
X024099Y011489D01*
X024099Y008939D01*
X022199Y007039D01*
X022199Y005989D01*
X021799Y005589D01*
X015299Y005589D01*
X014949Y005239D01*
X014949Y003339D01*
X014199Y002589D01*
X014199Y002089D01*
X013844Y002511D02*
X007401Y002511D01*
X007450Y002392D02*
X013730Y002392D01*
X013681Y002274D02*
X007499Y002274D01*
X007509Y002155D02*
X013649Y002155D01*
X013649Y002037D02*
X007509Y002037D01*
X007505Y001918D02*
X013675Y001918D01*
X013724Y001800D02*
X007456Y001800D01*
X007407Y001681D02*
X013829Y001681D01*
X014032Y001563D02*
X007319Y001563D01*
X007200Y001444D02*
X026964Y001444D01*
X026969Y001563D02*
X026367Y001563D01*
X026309Y001539D02*
X026511Y001622D01*
X026666Y001777D01*
X026749Y001979D01*
X026749Y002198D01*
X026666Y002400D01*
X026511Y002555D01*
X026309Y002638D01*
X026090Y002638D01*
X025888Y002555D01*
X025733Y002400D01*
X025699Y002319D01*
X025666Y002400D01*
X025511Y002555D01*
X025309Y002638D01*
X025090Y002638D01*
X024888Y002555D01*
X024733Y002400D01*
X024699Y002319D01*
X024666Y002400D01*
X024511Y002555D01*
X024309Y002638D01*
X024090Y002638D01*
X023888Y002555D01*
X023733Y002400D01*
X023699Y002319D01*
X023666Y002400D01*
X023511Y002555D01*
X023309Y002638D01*
X023090Y002638D01*
X022888Y002555D01*
X022733Y002400D01*
X022699Y002319D01*
X022666Y002400D01*
X022511Y002555D01*
X022309Y002638D01*
X022090Y002638D01*
X021888Y002555D01*
X021733Y002400D01*
X021699Y002319D01*
X021666Y002400D01*
X021511Y002555D01*
X021309Y002638D01*
X021090Y002638D01*
X020888Y002555D01*
X020733Y002400D01*
X020649Y002198D01*
X020649Y001979D01*
X020733Y001777D01*
X020888Y001622D01*
X021090Y001539D01*
X021309Y001539D01*
X021511Y001622D01*
X021666Y001777D01*
X021699Y001858D01*
X021733Y001777D01*
X021888Y001622D01*
X022090Y001539D01*
X022309Y001539D01*
X022511Y001622D01*
X022666Y001777D01*
X022699Y001858D01*
X022733Y001777D01*
X022888Y001622D01*
X023090Y001539D01*
X023309Y001539D01*
X023511Y001622D01*
X023666Y001777D01*
X023699Y001858D01*
X023733Y001777D01*
X023888Y001622D01*
X024090Y001539D01*
X024309Y001539D01*
X024511Y001622D01*
X024666Y001777D01*
X024699Y001858D01*
X024733Y001777D01*
X024888Y001622D01*
X025090Y001539D01*
X025309Y001539D01*
X025511Y001622D01*
X025666Y001777D01*
X025699Y001858D01*
X025733Y001777D01*
X025888Y001622D01*
X026090Y001539D01*
X026309Y001539D01*
X026032Y001563D02*
X025367Y001563D01*
X025570Y001681D02*
X025829Y001681D01*
X025724Y001800D02*
X025675Y001800D01*
X025032Y001563D02*
X024367Y001563D01*
X024570Y001681D02*
X024829Y001681D01*
X024724Y001800D02*
X024675Y001800D01*
X024032Y001563D02*
X023367Y001563D01*
X023570Y001681D02*
X023829Y001681D01*
X023724Y001800D02*
X023675Y001800D01*
X023032Y001563D02*
X022367Y001563D01*
X022570Y001681D02*
X022829Y001681D01*
X022724Y001800D02*
X022675Y001800D01*
X022032Y001563D02*
X021367Y001563D01*
X021570Y001681D02*
X021829Y001681D01*
X021724Y001800D02*
X021675Y001800D01*
X021669Y002392D02*
X021730Y002392D01*
X021844Y002511D02*
X021555Y002511D01*
X021330Y002630D02*
X022068Y002630D01*
X022330Y002630D02*
X023068Y002630D01*
X022844Y002511D02*
X022555Y002511D01*
X022669Y002392D02*
X022730Y002392D01*
X023330Y002630D02*
X024068Y002630D01*
X023844Y002511D02*
X023555Y002511D01*
X023669Y002392D02*
X023730Y002392D01*
X024330Y002630D02*
X025068Y002630D01*
X024844Y002511D02*
X024555Y002511D01*
X024669Y002392D02*
X024730Y002392D01*
X025330Y002630D02*
X026068Y002630D01*
X025844Y002511D02*
X025555Y002511D01*
X025669Y002392D02*
X025730Y002392D01*
X026330Y002630D02*
X027415Y002630D01*
X027534Y002748D02*
X015439Y002748D01*
X015439Y002630D02*
X016068Y002630D01*
X015844Y002511D02*
X015555Y002511D01*
X015669Y002392D02*
X015730Y002392D01*
X015439Y002867D02*
X027652Y002867D01*
X027771Y002985D02*
X015439Y002985D01*
X015439Y003104D02*
X027889Y003104D01*
X027297Y002511D02*
X026555Y002511D01*
X026669Y002392D02*
X027178Y002392D01*
X027060Y002274D02*
X026718Y002274D01*
X026749Y002155D02*
X026969Y002155D01*
X026969Y002037D02*
X026749Y002037D01*
X026724Y001918D02*
X026969Y001918D01*
X026969Y001800D02*
X026675Y001800D01*
X026570Y001681D02*
X026969Y001681D01*
X026847Y001326D02*
X006974Y001326D01*
X006425Y001326D02*
X001552Y001326D01*
X001435Y001444D02*
X006198Y001444D01*
X006080Y001563D02*
X001429Y001563D01*
X001429Y001681D02*
X005991Y001681D01*
X005942Y001800D02*
X001429Y001800D01*
X001429Y001918D02*
X005893Y001918D01*
X005889Y002037D02*
X001429Y002037D01*
X001429Y002155D02*
X005889Y002155D01*
X005900Y002274D02*
X001429Y002274D01*
X001429Y002392D02*
X005949Y002392D01*
X005998Y002511D02*
X001429Y002511D01*
X001429Y002630D02*
X006095Y002630D01*
X006214Y002748D02*
X001429Y002748D01*
X001429Y002867D02*
X006462Y002867D01*
X006937Y002867D02*
X014138Y002867D01*
X014257Y002985D02*
X001429Y002985D01*
X001429Y003104D02*
X014375Y003104D01*
X014494Y003222D02*
X001429Y003222D01*
X001429Y003341D02*
X014612Y003341D01*
X014709Y003459D02*
X001429Y003459D01*
X001429Y003578D02*
X014709Y003578D01*
X014709Y003696D02*
X001429Y003696D01*
X001429Y003815D02*
X014709Y003815D01*
X014709Y003934D02*
X001429Y003934D01*
X001429Y004052D02*
X014709Y004052D01*
X014709Y004171D02*
X001429Y004171D01*
X001429Y004289D02*
X014709Y004289D01*
X014709Y004408D02*
X001429Y004408D01*
X001429Y004526D02*
X014709Y004526D01*
X014709Y004645D02*
X001429Y004645D01*
X001429Y004763D02*
X014709Y004763D01*
X014709Y004882D02*
X001429Y004882D01*
X001429Y005000D02*
X014709Y005000D01*
X014709Y005119D02*
X001429Y005119D01*
X001429Y005238D02*
X014709Y005238D01*
X014738Y005356D02*
X001429Y005356D01*
X001429Y005475D02*
X014846Y005475D01*
X014965Y005593D02*
X001429Y005593D01*
X001429Y005712D02*
X013987Y005712D01*
X013868Y005830D02*
X001429Y005830D01*
X001429Y005949D02*
X013750Y005949D01*
X013709Y006067D02*
X001429Y006067D01*
X001429Y006186D02*
X013574Y006186D01*
X013472Y006304D02*
X001429Y006304D01*
X001429Y006423D02*
X013423Y006423D01*
X013399Y006541D02*
X001429Y006541D01*
X001429Y006660D02*
X013399Y006660D01*
X013433Y006779D02*
X001429Y006779D01*
X001429Y006897D02*
X013482Y006897D01*
X013599Y007016D02*
X001429Y007016D01*
X001429Y007134D02*
X013830Y007134D01*
X014069Y007134D02*
X014830Y007134D01*
X015069Y007134D02*
X015830Y007134D01*
X016069Y007134D02*
X016156Y007134D01*
X016274Y007253D02*
X001429Y007253D01*
X001429Y007371D02*
X016393Y007371D01*
X016509Y007490D02*
X001429Y007490D01*
X001429Y007608D02*
X016509Y007608D01*
X016509Y007727D02*
X001429Y007727D01*
X001429Y007845D02*
X016509Y007845D01*
X016509Y007964D02*
X001429Y007964D01*
X001429Y008083D02*
X016509Y008083D01*
X016509Y008201D02*
X001429Y008201D01*
X001429Y008320D02*
X016509Y008320D01*
X016509Y008438D02*
X001429Y008438D01*
X001429Y008557D02*
X016509Y008557D01*
X016509Y008675D02*
X001429Y008675D01*
X001429Y008794D02*
X016509Y008794D01*
X016509Y008912D02*
X001429Y008912D01*
X001429Y009031D02*
X016509Y009031D01*
X016509Y009149D02*
X001429Y009149D01*
X001429Y009268D02*
X016509Y009268D01*
X016509Y009387D02*
X001429Y009387D01*
X001429Y009505D02*
X016509Y009505D01*
X016509Y009624D02*
X001429Y009624D01*
X001429Y009742D02*
X016509Y009742D01*
X016509Y009861D02*
X001429Y009861D01*
X001429Y009979D02*
X016509Y009979D01*
X016509Y010098D02*
X001429Y010098D01*
X001429Y010216D02*
X016509Y010216D01*
X016509Y010335D02*
X001429Y010335D01*
X001429Y010453D02*
X016509Y010453D01*
X016509Y010572D02*
X001429Y010572D01*
X001429Y010691D02*
X016447Y010691D01*
X016398Y010809D02*
X001429Y010809D01*
X001429Y010928D02*
X016394Y010928D01*
X016430Y011046D02*
X001429Y011046D01*
X001429Y011165D02*
X016524Y011165D01*
X016602Y011402D02*
X019559Y011402D01*
X019559Y011520D02*
X016721Y011520D01*
X016839Y011639D02*
X019559Y011639D01*
X019559Y011757D02*
X016958Y011757D01*
X017076Y011876D02*
X019559Y011876D01*
X019352Y011994D02*
X017170Y011994D01*
X017189Y012113D02*
X019173Y012113D01*
X019109Y012232D02*
X017189Y012232D01*
X017189Y012350D02*
X019094Y012350D01*
X019119Y012469D02*
X017189Y012469D01*
X017189Y012587D02*
X019196Y012587D01*
X019449Y012706D02*
X017189Y012706D01*
X017189Y012824D02*
X019444Y012824D01*
X019479Y012943D02*
X017253Y012943D01*
X017302Y013061D02*
X019570Y013061D01*
X019769Y013180D02*
X017304Y013180D01*
X017267Y013298D02*
X019650Y013298D01*
X019699Y013589D02*
X020849Y012439D01*
X020849Y012189D01*
X020532Y012350D02*
X020289Y012350D01*
X020289Y012232D02*
X020494Y012232D01*
X020496Y012113D02*
X020289Y012113D01*
X020289Y011994D02*
X020545Y011994D01*
X020676Y011876D02*
X020289Y011876D01*
X020289Y011757D02*
X020944Y011757D01*
X020977Y011639D02*
X020289Y011639D01*
X020289Y011520D02*
X021066Y011520D01*
X021299Y011789D02*
X021299Y012389D01*
X019849Y013839D01*
X012699Y013839D01*
X011299Y015239D01*
X008299Y015239D01*
X007949Y015589D01*
X007699Y015589D01*
X007539Y015906D02*
X001429Y015906D01*
X001429Y015788D02*
X007398Y015788D01*
X007349Y015669D02*
X001429Y015669D01*
X001429Y015551D02*
X003151Y015551D01*
X003130Y015542D02*
X003024Y015436D01*
X002966Y015297D01*
X002966Y015147D01*
X003024Y015009D01*
X003130Y014903D01*
X003268Y014846D01*
X003418Y014846D01*
X003557Y014903D01*
X003663Y015009D01*
X003720Y015147D01*
X003720Y015297D01*
X003663Y015436D01*
X003557Y015542D01*
X003418Y015599D01*
X003268Y015599D01*
X003130Y015542D01*
X003022Y015432D02*
X001429Y015432D01*
X001429Y015314D02*
X002973Y015314D01*
X002966Y015195D02*
X001429Y015195D01*
X001429Y015077D02*
X002996Y015077D01*
X003074Y014958D02*
X001429Y014958D01*
X001429Y014840D02*
X007448Y014840D01*
X007370Y014721D02*
X001429Y014721D01*
X001429Y014602D02*
X007344Y014602D01*
X007358Y014484D02*
X001429Y014484D01*
X001429Y014365D02*
X007420Y014365D01*
X007597Y014247D02*
X001429Y014247D01*
X001429Y014128D02*
X011670Y014128D01*
X011789Y014010D02*
X001429Y014010D01*
X001429Y013891D02*
X011907Y013891D01*
X012026Y013773D02*
X001429Y013773D01*
X001429Y013654D02*
X012144Y013654D01*
X012263Y013536D02*
X001429Y013536D01*
X001429Y013417D02*
X012381Y013417D01*
X012549Y013589D02*
X019699Y013589D01*
X020136Y013891D02*
X020457Y013891D01*
X020339Y014010D02*
X020018Y014010D01*
X020250Y014099D02*
X020944Y013404D01*
X020944Y013318D01*
X020998Y013187D01*
X021098Y013088D01*
X021229Y013034D01*
X021370Y013034D01*
X021500Y013088D01*
X021600Y013187D01*
X021654Y013318D01*
X021654Y013459D01*
X021600Y013590D01*
X021500Y013689D01*
X021370Y013743D01*
X021284Y013743D01*
X020485Y014542D01*
X020397Y014578D01*
X020302Y014578D01*
X017779Y014578D01*
X017934Y014734D01*
X018020Y014734D01*
X018150Y014788D01*
X018250Y014887D01*
X018304Y015018D01*
X018304Y015159D01*
X018250Y015290D01*
X018150Y015389D01*
X018020Y015443D01*
X017879Y015443D01*
X017748Y015389D01*
X017648Y015290D01*
X017594Y015159D01*
X017594Y015073D01*
X017350Y014828D01*
X013399Y014828D01*
X013276Y014951D01*
X013304Y015018D01*
X013304Y015159D01*
X013250Y015290D01*
X013150Y015389D01*
X013037Y015436D01*
X013153Y015553D01*
X013189Y015641D01*
X013189Y015736D01*
X013189Y015826D01*
X013250Y015887D01*
X013304Y016018D01*
X013304Y016159D01*
X013250Y016290D01*
X013150Y016389D01*
X013020Y016443D01*
X012879Y016443D01*
X012748Y016389D01*
X012648Y016290D01*
X012594Y016159D01*
X012594Y016018D01*
X012648Y015887D01*
X012709Y015826D01*
X012709Y015788D01*
X008089Y015788D01*
X008208Y015669D02*
X012591Y015669D01*
X012472Y015551D02*
X008326Y015551D01*
X008003Y015195D02*
X003720Y015195D01*
X003713Y015314D02*
X007472Y015314D01*
X007380Y015432D02*
X003664Y015432D01*
X003535Y015551D02*
X007344Y015551D01*
X007859Y015906D02*
X012641Y015906D01*
X012594Y016025D02*
X001429Y016025D01*
X001429Y016144D02*
X012594Y016144D01*
X012637Y016262D02*
X001429Y016262D01*
X001429Y016381D02*
X012739Y016381D01*
X012949Y016089D02*
X012949Y015689D01*
X012549Y015289D01*
X012549Y014889D01*
X013099Y014339D01*
X020349Y014339D01*
X021299Y013389D01*
X021623Y013536D02*
X022709Y013536D01*
X022709Y013654D02*
X021536Y013654D01*
X021654Y013417D02*
X022709Y013417D01*
X022709Y013298D02*
X021646Y013298D01*
X021593Y013180D02*
X022709Y013180D01*
X022709Y013061D02*
X021437Y013061D01*
X021161Y013061D02*
X020966Y013061D01*
X021006Y013180D02*
X020847Y013180D01*
X020952Y013298D02*
X020729Y013298D01*
X020610Y013417D02*
X020931Y013417D01*
X020813Y013536D02*
X020492Y013536D01*
X020373Y013654D02*
X020694Y013654D01*
X020576Y013773D02*
X020255Y013773D01*
X020250Y014099D02*
X013052Y014099D01*
X012963Y014135D01*
X012896Y014203D01*
X012346Y014753D01*
X012309Y014841D01*
X012309Y014936D01*
X012309Y015241D01*
X012309Y015336D01*
X012346Y015424D01*
X012709Y015788D01*
X013151Y015551D02*
X022709Y015551D01*
X022709Y015669D02*
X013189Y015669D01*
X013189Y015788D02*
X022709Y015788D01*
X022709Y015906D02*
X013258Y015906D01*
X013304Y016025D02*
X022709Y016025D01*
X022709Y016144D02*
X013304Y016144D01*
X013262Y016262D02*
X022709Y016262D01*
X022709Y016381D02*
X013159Y016381D01*
X013047Y015432D02*
X017852Y015432D01*
X018047Y015432D02*
X022709Y015432D01*
X022709Y015314D02*
X018226Y015314D01*
X018289Y015195D02*
X022709Y015195D01*
X022709Y015077D02*
X018304Y015077D01*
X018280Y014958D02*
X022709Y014958D01*
X022709Y014840D02*
X018202Y014840D01*
X017921Y014721D02*
X022709Y014721D01*
X022709Y014602D02*
X017803Y014602D01*
X017449Y014589D02*
X013299Y014589D01*
X012949Y014939D01*
X012949Y015089D01*
X013280Y014958D02*
X017480Y014958D01*
X017594Y015077D02*
X013304Y015077D01*
X013289Y015195D02*
X017609Y015195D01*
X017673Y015314D02*
X013226Y015314D01*
X013388Y014840D02*
X017361Y014840D01*
X017449Y014589D02*
X017949Y015089D01*
X016631Y013298D02*
X001429Y013298D01*
X001429Y013180D02*
X016594Y013180D01*
X016597Y013061D02*
X001429Y013061D01*
X001429Y012943D02*
X016646Y012943D01*
X016709Y012824D02*
X001429Y012824D01*
X001429Y012706D02*
X016709Y012706D01*
X016709Y012587D02*
X001429Y012587D01*
X001429Y012469D02*
X016709Y012469D01*
X016709Y012350D02*
X001429Y012350D01*
X001429Y012232D02*
X016709Y012232D01*
X016634Y012113D02*
X001429Y012113D01*
X001429Y011994D02*
X016516Y011994D01*
X016397Y011876D02*
X015164Y011876D01*
X014949Y011589D02*
X016449Y011589D01*
X016949Y012089D01*
X016949Y013139D01*
X014735Y011876D02*
X001429Y011876D01*
X001429Y011757D02*
X014635Y011757D01*
X014594Y011639D02*
X001429Y011639D01*
X001429Y011520D02*
X014594Y011520D01*
X014642Y011402D02*
X001429Y011402D01*
X001429Y011283D02*
X014759Y011283D01*
X015140Y011283D02*
X019559Y011283D01*
X019559Y011165D02*
X016975Y011165D01*
X017068Y011046D02*
X019559Y011046D01*
X019559Y010928D02*
X017104Y010928D01*
X017101Y010809D02*
X019559Y010809D01*
X019559Y010691D02*
X017052Y010691D01*
X016989Y010572D02*
X019559Y010572D01*
X019559Y010453D02*
X016989Y010453D01*
X016989Y010335D02*
X019559Y010335D01*
X019559Y010216D02*
X016989Y010216D01*
X016989Y010098D02*
X019559Y010098D01*
X019559Y009979D02*
X016989Y009979D01*
X016989Y009861D02*
X019559Y009861D01*
X019559Y009742D02*
X016989Y009742D01*
X016989Y009624D02*
X019559Y009624D01*
X019559Y009505D02*
X016989Y009505D01*
X016989Y009387D02*
X019559Y009387D01*
X019559Y009268D02*
X016989Y009268D01*
X016989Y009149D02*
X019559Y009149D01*
X019559Y009031D02*
X016989Y009031D01*
X016989Y008912D02*
X019559Y008912D01*
X019559Y008794D02*
X016989Y008794D01*
X016989Y008675D02*
X019559Y008675D01*
X019559Y008557D02*
X016989Y008557D01*
X016989Y008438D02*
X019559Y008438D01*
X019559Y008320D02*
X016989Y008320D01*
X016989Y008201D02*
X019559Y008201D01*
X019559Y008083D02*
X016989Y008083D01*
X016989Y007964D02*
X019559Y007964D01*
X019559Y007845D02*
X016989Y007845D01*
X016989Y007727D02*
X019559Y007727D01*
X019559Y007608D02*
X016989Y007608D01*
X016989Y007490D02*
X019559Y007490D01*
X019799Y007489D02*
X019799Y011989D01*
X019449Y012339D01*
X019799Y012789D02*
X020049Y012539D01*
X020049Y007589D01*
X020599Y007039D01*
X021049Y007039D01*
X021149Y007039D01*
X023349Y009239D01*
X023349Y011789D01*
X024349Y012789D01*
X024349Y014089D01*
X023949Y014489D01*
X023949Y017589D01*
X022949Y018589D01*
X016699Y018589D01*
X016599Y018489D01*
X012849Y018489D01*
X012249Y019089D01*
X008949Y019089D01*
X008599Y019439D01*
X008599Y021089D01*
X008211Y021478D02*
X007915Y021478D01*
X007964Y021359D02*
X008116Y021359D01*
X008067Y021241D02*
X008009Y021241D01*
X008009Y021122D02*
X008049Y021122D01*
X008049Y021004D02*
X008009Y021004D01*
X007992Y020885D02*
X008088Y020885D01*
X008143Y020767D02*
X007943Y020767D01*
X007894Y020648D02*
X008262Y020648D01*
X008359Y020530D02*
X007786Y020530D01*
X007667Y020411D02*
X008359Y020411D01*
X008359Y020293D02*
X007394Y020293D01*
X007005Y020293D02*
X001429Y020293D01*
X001429Y020411D02*
X006731Y020411D01*
X006613Y020530D02*
X001429Y020530D01*
X001429Y020648D02*
X006505Y020648D01*
X006456Y020767D02*
X001429Y020767D01*
X001429Y020885D02*
X006407Y020885D01*
X006389Y021004D02*
X001429Y021004D01*
X001429Y021122D02*
X006389Y021122D01*
X006389Y021241D02*
X001429Y021241D01*
X001429Y021359D02*
X006435Y021359D01*
X006484Y021478D02*
X001429Y021478D01*
X001429Y021596D02*
X006562Y021596D01*
X006681Y021715D02*
X001431Y021715D01*
X001509Y021834D02*
X006882Y021834D01*
X007517Y021834D02*
X026529Y021834D01*
X026648Y021715D02*
X007718Y021715D01*
X007837Y021596D02*
X008389Y021596D01*
X008810Y021596D02*
X009389Y021596D01*
X009211Y021478D02*
X008988Y021478D01*
X009082Y021359D02*
X009116Y021359D01*
X009599Y021089D02*
X009599Y019689D01*
X009949Y019339D01*
X012349Y019339D01*
X012949Y018739D01*
X016349Y018739D01*
X016449Y018839D01*
X023049Y018839D01*
X024199Y017689D01*
X024199Y014589D01*
X024599Y014189D01*
X024599Y012689D01*
X023599Y011689D01*
X023599Y009139D01*
X021649Y007189D01*
X021649Y006789D01*
X021499Y006639D01*
X020649Y006639D01*
X019799Y007489D01*
X019814Y007134D02*
X016834Y007134D01*
X016716Y007016D02*
X019933Y007016D01*
X020051Y006897D02*
X016597Y006897D01*
X016479Y006779D02*
X020170Y006779D01*
X020288Y006660D02*
X016499Y006660D01*
X016499Y006541D02*
X020407Y006541D01*
X020543Y006423D02*
X016476Y006423D01*
X016427Y006304D02*
X021378Y006304D01*
X021620Y006304D02*
X021709Y006304D01*
X021707Y006186D02*
X016325Y006186D01*
X015949Y006589D02*
X016749Y007389D01*
X016749Y010889D01*
X020289Y010928D02*
X022209Y010928D01*
X022209Y011046D02*
X020289Y011046D01*
X020289Y011165D02*
X022209Y011165D01*
X022209Y011283D02*
X020289Y011283D01*
X020289Y011402D02*
X022209Y011402D01*
X022209Y011520D02*
X021533Y011520D01*
X021622Y011639D02*
X022209Y011639D01*
X022209Y011757D02*
X021654Y011757D01*
X021647Y011876D02*
X022209Y011876D01*
X022209Y011994D02*
X021595Y011994D01*
X021539Y012113D02*
X022209Y012113D01*
X022209Y012136D02*
X022209Y010288D01*
X021700Y009778D01*
X021211Y009778D01*
X021150Y009839D01*
X021020Y009893D01*
X020879Y009893D01*
X020748Y009839D01*
X020648Y009740D01*
X020594Y009609D01*
X020594Y009468D01*
X020648Y009337D01*
X020748Y009238D01*
X020879Y009184D01*
X021020Y009184D01*
X021150Y009238D01*
X021211Y009299D01*
X021847Y009299D01*
X021935Y009335D01*
X022003Y009403D01*
X022653Y010053D01*
X022689Y010141D01*
X022689Y010236D01*
X022689Y011989D01*
X023085Y012385D01*
X023085Y012385D01*
X023153Y012453D01*
X023189Y012541D01*
X023189Y017386D01*
X023153Y017474D01*
X023085Y017542D01*
X022835Y017792D01*
X022747Y017828D01*
X022652Y017828D01*
X013049Y017828D01*
X012335Y018542D01*
X012247Y018578D01*
X012152Y018578D01*
X011461Y018578D01*
X011400Y018639D01*
X011270Y018693D01*
X011129Y018693D01*
X010998Y018639D01*
X010898Y018540D01*
X010844Y018409D01*
X010844Y018268D01*
X010898Y018137D01*
X010998Y018038D01*
X011129Y017984D01*
X011270Y017984D01*
X011400Y018038D01*
X011461Y018099D01*
X012100Y018099D01*
X012746Y017453D01*
X012813Y017385D01*
X012902Y017349D01*
X022600Y017349D01*
X022709Y017239D01*
X022709Y012688D01*
X022313Y012292D01*
X022246Y012224D01*
X022209Y012136D01*
X022253Y012232D02*
X021539Y012232D01*
X021539Y012350D02*
X022372Y012350D01*
X022313Y012292D02*
X022313Y012292D01*
X022449Y012089D02*
X022449Y010189D01*
X021799Y009539D01*
X020949Y009539D01*
X020800Y009861D02*
X020289Y009861D01*
X020289Y009979D02*
X021901Y009979D01*
X022019Y010098D02*
X020289Y010098D01*
X020289Y010216D02*
X022138Y010216D01*
X022209Y010335D02*
X020289Y010335D01*
X020289Y010453D02*
X022209Y010453D01*
X022209Y010572D02*
X020289Y010572D01*
X020289Y010691D02*
X022209Y010691D01*
X022209Y010809D02*
X020289Y010809D01*
X020289Y009742D02*
X020651Y009742D01*
X020600Y009624D02*
X020289Y009624D01*
X020289Y009505D02*
X020594Y009505D01*
X020628Y009387D02*
X020289Y009387D01*
X020289Y009268D02*
X020718Y009268D01*
X020289Y009149D02*
X022921Y009149D01*
X022802Y009031D02*
X020289Y009031D01*
X020289Y008912D02*
X022684Y008912D01*
X022565Y008794D02*
X020289Y008794D01*
X020289Y008675D02*
X022447Y008675D01*
X022328Y008557D02*
X020289Y008557D01*
X020289Y008438D02*
X022210Y008438D01*
X022091Y008320D02*
X020289Y008320D01*
X020289Y008201D02*
X021973Y008201D01*
X021854Y008083D02*
X020289Y008083D01*
X020289Y007964D02*
X021735Y007964D01*
X021617Y007845D02*
X020289Y007845D01*
X020289Y007727D02*
X021498Y007727D01*
X021380Y007608D02*
X020369Y007608D01*
X020487Y007490D02*
X021261Y007490D01*
X020925Y007371D02*
X020606Y007371D01*
X021949Y007139D02*
X023849Y009039D01*
X023849Y011589D01*
X024999Y012739D01*
X024999Y013439D01*
X024099Y012889D02*
X024099Y013989D01*
X023699Y014389D01*
X023699Y017489D01*
X022849Y018339D01*
X017399Y018339D01*
X017299Y018239D01*
X017137Y017922D02*
X012956Y017922D01*
X012837Y018040D02*
X016997Y018040D01*
X016948Y018159D02*
X012719Y018159D01*
X012732Y018277D02*
X012600Y018277D01*
X012603Y018396D02*
X012481Y018396D01*
X012484Y018514D02*
X012363Y018514D01*
X012366Y018633D02*
X011407Y018633D01*
X011199Y018339D02*
X012199Y018339D01*
X012949Y017589D01*
X022699Y017589D01*
X022949Y017339D01*
X022949Y012589D01*
X022449Y012089D01*
X022695Y011994D02*
X022884Y011994D01*
X022859Y011876D02*
X022689Y011876D01*
X022689Y011757D02*
X022859Y011757D01*
X022859Y011639D02*
X022689Y011639D01*
X022689Y011520D02*
X022859Y011520D01*
X022859Y011402D02*
X022689Y011402D01*
X022689Y011283D02*
X022859Y011283D01*
X022859Y011165D02*
X022689Y011165D01*
X022689Y011046D02*
X022859Y011046D01*
X022859Y010928D02*
X022689Y010928D01*
X022689Y010809D02*
X022859Y010809D01*
X022859Y010691D02*
X022689Y010691D01*
X022689Y010572D02*
X022859Y010572D01*
X022859Y010453D02*
X022689Y010453D01*
X022689Y010335D02*
X022859Y010335D01*
X022859Y010216D02*
X022689Y010216D01*
X022672Y010098D02*
X022707Y010098D01*
X022623Y009979D02*
X022580Y009979D01*
X022594Y009861D02*
X022461Y009861D01*
X022342Y009742D02*
X022605Y009742D01*
X022662Y009624D02*
X022224Y009624D01*
X022105Y009505D02*
X022827Y009505D01*
X023072Y009505D02*
X023109Y009505D01*
X023109Y009387D02*
X021987Y009387D01*
X021782Y009861D02*
X021099Y009861D01*
X021181Y009268D02*
X023039Y009268D01*
X022949Y009839D02*
X023099Y009989D01*
X023099Y011889D01*
X024099Y012889D01*
X023814Y012943D02*
X023189Y012943D01*
X023189Y013061D02*
X023859Y013061D01*
X023859Y013180D02*
X023189Y013180D01*
X023189Y013298D02*
X023859Y013298D01*
X023859Y013417D02*
X023189Y013417D01*
X023189Y013536D02*
X023859Y013536D01*
X023859Y013654D02*
X023189Y013654D01*
X023189Y013773D02*
X023859Y013773D01*
X023857Y013891D02*
X023189Y013891D01*
X023189Y014010D02*
X023739Y014010D01*
X023620Y014128D02*
X023189Y014128D01*
X023189Y014247D02*
X023502Y014247D01*
X023459Y014365D02*
X023189Y014365D01*
X023189Y014484D02*
X023459Y014484D01*
X023459Y014602D02*
X023189Y014602D01*
X023189Y014721D02*
X023459Y014721D01*
X023459Y014840D02*
X023189Y014840D01*
X023189Y014958D02*
X023459Y014958D01*
X023459Y015077D02*
X023189Y015077D01*
X023189Y015195D02*
X023459Y015195D01*
X023459Y015314D02*
X023189Y015314D01*
X023189Y015432D02*
X023459Y015432D01*
X023459Y015551D02*
X023189Y015551D01*
X023189Y015669D02*
X023459Y015669D01*
X023459Y015788D02*
X023189Y015788D01*
X023189Y015906D02*
X023459Y015906D01*
X023459Y016025D02*
X023189Y016025D01*
X023189Y016144D02*
X023459Y016144D01*
X023459Y016262D02*
X023189Y016262D01*
X023189Y016381D02*
X023459Y016381D01*
X023459Y016499D02*
X023189Y016499D01*
X023189Y016618D02*
X023459Y016618D01*
X023459Y016736D02*
X023189Y016736D01*
X023189Y016855D02*
X023459Y016855D01*
X023459Y016973D02*
X023189Y016973D01*
X023189Y017092D02*
X023459Y017092D01*
X023459Y017210D02*
X023189Y017210D01*
X023189Y017329D02*
X023459Y017329D01*
X023401Y017447D02*
X023164Y017447D01*
X023061Y017566D02*
X023282Y017566D01*
X023164Y017685D02*
X022943Y017685D01*
X023045Y017803D02*
X022808Y017803D01*
X022927Y017922D02*
X017462Y017922D01*
X017601Y018040D02*
X022808Y018040D01*
X022619Y017329D02*
X003424Y017329D01*
X003418Y017331D02*
X003268Y017331D01*
X003130Y017274D01*
X003024Y017168D01*
X002966Y017030D01*
X002966Y016880D01*
X003024Y016741D01*
X003130Y016635D01*
X003268Y016578D01*
X003418Y016578D01*
X003557Y016635D01*
X003663Y016741D01*
X003720Y016880D01*
X003720Y017030D01*
X003663Y017168D01*
X003557Y017274D01*
X003418Y017331D01*
X003262Y017329D02*
X001429Y017329D01*
X001429Y017447D02*
X012751Y017447D01*
X012632Y017566D02*
X001429Y017566D01*
X001429Y017685D02*
X012514Y017685D01*
X012395Y017803D02*
X001429Y017803D01*
X001429Y017922D02*
X012277Y017922D01*
X012158Y018040D02*
X011403Y018040D01*
X010996Y018040D02*
X001429Y018040D01*
X001429Y018159D02*
X010890Y018159D01*
X010844Y018277D02*
X001429Y018277D01*
X001429Y018396D02*
X010844Y018396D01*
X010888Y018514D02*
X001429Y018514D01*
X001429Y018633D02*
X010992Y018633D01*
X010249Y019589D02*
X012449Y019589D01*
X013049Y018989D01*
X016199Y018989D01*
X016299Y019089D01*
X023149Y019089D01*
X024374Y020174D02*
X026969Y020174D01*
X026969Y020293D02*
X024439Y020293D01*
X024439Y020411D02*
X026969Y020411D01*
X026969Y020530D02*
X024439Y020530D01*
X024537Y020648D02*
X024862Y020648D01*
X024743Y020767D02*
X024655Y020767D01*
X024682Y021359D02*
X024716Y021359D01*
X024811Y021478D02*
X024588Y021478D01*
X024410Y021596D02*
X024989Y021596D01*
X025410Y021596D02*
X025713Y021596D01*
X025649Y021478D02*
X025588Y021478D01*
X025537Y020648D02*
X025649Y020648D01*
X026749Y020648D02*
X026969Y020648D01*
X026969Y020767D02*
X026749Y020767D01*
X026749Y020885D02*
X026969Y020885D01*
X026969Y021004D02*
X026749Y021004D01*
X026749Y021122D02*
X026969Y021122D01*
X026969Y021241D02*
X026749Y021241D01*
X026749Y021359D02*
X026969Y021359D01*
X026885Y021478D02*
X026749Y021478D01*
X026766Y021596D02*
X026686Y021596D01*
X022709Y017210D02*
X003620Y017210D01*
X003694Y017092D02*
X022709Y017092D01*
X022709Y016973D02*
X003720Y016973D01*
X003710Y016855D02*
X022709Y016855D01*
X022709Y016736D02*
X003658Y016736D01*
X003514Y016618D02*
X022709Y016618D01*
X022709Y016499D02*
X001429Y016499D01*
X001429Y016618D02*
X003172Y016618D01*
X003029Y016736D02*
X001429Y016736D01*
X001429Y016855D02*
X002976Y016855D01*
X002966Y016973D02*
X001429Y016973D01*
X001429Y017092D02*
X002992Y017092D01*
X003066Y017210D02*
X001429Y017210D01*
X001429Y018751D02*
X012247Y018751D01*
X012359Y019937D02*
X010451Y019937D01*
X010312Y020055D02*
X012359Y020055D01*
X012359Y020174D02*
X009839Y020174D01*
X009839Y020293D02*
X012359Y020293D01*
X012359Y020411D02*
X009839Y020411D01*
X009839Y020530D02*
X012359Y020530D01*
X012262Y020648D02*
X011895Y020648D01*
X012021Y020767D02*
X012143Y020767D01*
X010262Y020648D02*
X009937Y020648D01*
X010055Y020767D02*
X010143Y020767D01*
X010116Y021359D02*
X010082Y021359D01*
X009988Y021478D02*
X010211Y021478D01*
X010389Y021596D02*
X009810Y021596D01*
X008359Y020174D02*
X001429Y020174D01*
X001429Y020055D02*
X008359Y020055D01*
X008359Y019937D02*
X001429Y019937D01*
X001429Y019818D02*
X008359Y019818D01*
X008359Y019700D02*
X001429Y019700D01*
X001429Y019581D02*
X008359Y019581D01*
X008359Y019463D02*
X001429Y019463D01*
X001429Y019344D02*
X008379Y019344D01*
X008473Y019226D02*
X001429Y019226D01*
X001429Y019107D02*
X008591Y019107D01*
X008710Y018989D02*
X001429Y018989D01*
X001429Y018870D02*
X008850Y018870D01*
X010149Y019689D02*
X010149Y019739D01*
X010149Y019689D02*
X010249Y019589D01*
X009847Y019937D02*
X009839Y019937D01*
X009839Y020055D02*
X009987Y020055D01*
X011445Y015432D02*
X012354Y015432D01*
X012309Y015314D02*
X011564Y015314D01*
X011682Y015195D02*
X012309Y015195D01*
X012309Y015077D02*
X011801Y015077D01*
X011919Y014958D02*
X012309Y014958D01*
X012310Y014840D02*
X012038Y014840D01*
X012156Y014721D02*
X012377Y014721D01*
X012275Y014602D02*
X012496Y014602D01*
X012393Y014484D02*
X012615Y014484D01*
X012512Y014365D02*
X012733Y014365D01*
X012630Y014247D02*
X012852Y014247D01*
X012749Y014128D02*
X012980Y014128D01*
X012549Y013589D02*
X011199Y014939D01*
X008299Y014939D01*
X007949Y014589D01*
X007699Y014589D01*
X007802Y014247D02*
X011552Y014247D01*
X011433Y014365D02*
X008038Y014365D01*
X008184Y014484D02*
X011315Y014484D01*
X011196Y014602D02*
X008303Y014602D01*
X007980Y014958D02*
X003612Y014958D01*
X003691Y015077D02*
X008098Y015077D01*
X016717Y018277D02*
X016944Y018277D01*
X020543Y014484D02*
X022709Y014484D01*
X022709Y014365D02*
X020662Y014365D01*
X020780Y014247D02*
X022709Y014247D01*
X022709Y014128D02*
X020899Y014128D01*
X021018Y014010D02*
X022709Y014010D01*
X022709Y013891D02*
X021136Y013891D01*
X021255Y013773D02*
X022709Y013773D01*
X022709Y012943D02*
X021084Y012943D01*
X021203Y012824D02*
X022709Y012824D01*
X022709Y012706D02*
X021321Y012706D01*
X021440Y012587D02*
X022609Y012587D01*
X022490Y012469D02*
X021526Y012469D01*
X020480Y012469D02*
X020289Y012469D01*
X020289Y012587D02*
X020361Y012587D01*
X020243Y012706D02*
X020221Y012706D01*
X022813Y012113D02*
X022984Y012113D01*
X022932Y012232D02*
X023103Y012232D01*
X023050Y012350D02*
X023222Y012350D01*
X023159Y012469D02*
X023340Y012469D01*
X023459Y012587D02*
X023189Y012587D01*
X023189Y012706D02*
X023577Y012706D01*
X023696Y012824D02*
X023189Y012824D01*
X024449Y011339D02*
X024349Y011239D01*
X024349Y008839D01*
X022449Y006939D01*
X022449Y005889D01*
X021899Y005339D01*
X015449Y005339D01*
X015199Y005089D01*
X015199Y002089D01*
X014829Y001681D02*
X014570Y001681D01*
X014675Y001800D02*
X014724Y001800D01*
X015032Y001563D02*
X014367Y001563D01*
X015367Y001563D02*
X016032Y001563D01*
X015829Y001681D02*
X015570Y001681D01*
X015675Y001800D02*
X015724Y001800D01*
X016367Y001563D02*
X017131Y001563D01*
X017159Y001563D02*
X017239Y001563D01*
X017267Y001563D02*
X018131Y001563D01*
X018159Y001563D02*
X018239Y001563D01*
X018267Y001563D02*
X019032Y001563D01*
X018829Y001681D02*
X018540Y001681D01*
X018645Y001800D02*
X018724Y001800D01*
X018239Y001800D02*
X018159Y001800D01*
X018159Y001918D02*
X018239Y001918D01*
X018239Y002037D02*
X018159Y002037D01*
X018159Y002048D02*
X017669Y002048D01*
X017240Y002048D01*
X017240Y002129D01*
X017669Y002129D01*
X018159Y002129D01*
X018159Y002048D01*
X018159Y002155D02*
X018239Y002155D01*
X018239Y002274D02*
X018159Y002274D01*
X018159Y002392D02*
X018239Y002392D01*
X018239Y002511D02*
X018159Y002511D01*
X017879Y002511D02*
X017519Y002511D01*
X017634Y002392D02*
X017765Y002392D01*
X017702Y002274D02*
X017696Y002274D01*
X017239Y002274D02*
X017159Y002274D01*
X017159Y002392D02*
X017239Y002392D01*
X017239Y002511D02*
X017159Y002511D01*
X016879Y002511D02*
X016555Y002511D01*
X016669Y002392D02*
X016765Y002392D01*
X017159Y002155D02*
X017239Y002155D01*
X017239Y002037D02*
X017159Y002037D01*
X017159Y001918D02*
X017239Y001918D01*
X017239Y001800D02*
X017159Y001800D01*
X017159Y001681D02*
X017239Y001681D01*
X017540Y001681D02*
X017858Y001681D01*
X017754Y001800D02*
X017645Y001800D01*
X018159Y001681D02*
X018239Y001681D01*
X018634Y002392D02*
X018730Y002392D01*
X018844Y002511D02*
X018519Y002511D01*
X019068Y002630D02*
X016330Y002630D01*
X016675Y001800D02*
X016754Y001800D01*
X016858Y001681D02*
X016570Y001681D01*
X014020Y002748D02*
X007185Y002748D01*
X007304Y002630D02*
X013959Y002630D01*
X014199Y005839D02*
X013949Y006089D01*
X013949Y006589D01*
X014300Y007016D02*
X014599Y007016D01*
X014482Y006897D02*
X014417Y006897D01*
X015300Y007016D02*
X015599Y007016D01*
X015482Y006897D02*
X015417Y006897D01*
X014199Y005839D02*
X021699Y005839D01*
X021949Y006089D01*
X021949Y007139D01*
X022612Y005712D02*
X022649Y005712D01*
X022649Y005593D02*
X022493Y005593D01*
X022375Y005475D02*
X022649Y005475D01*
X022654Y005356D02*
X022256Y005356D01*
X022138Y005238D02*
X022773Y005238D01*
X022891Y005119D02*
X021996Y005119D01*
X023508Y005119D02*
X023891Y005119D01*
X023773Y005238D02*
X023626Y005238D01*
X024508Y005119D02*
X024891Y005119D01*
X024773Y005238D02*
X024626Y005238D01*
X021068Y002630D02*
X019330Y002630D01*
X019555Y002511D02*
X020844Y002511D01*
X020730Y002392D02*
X019669Y002392D01*
X019718Y002274D02*
X020681Y002274D01*
X020649Y002155D02*
X019749Y002155D01*
X019749Y002037D02*
X020649Y002037D01*
X020675Y001918D02*
X019724Y001918D01*
X019675Y001800D02*
X020724Y001800D01*
X020829Y001681D02*
X019570Y001681D01*
X019367Y001563D02*
X021032Y001563D01*
X016953Y007253D02*
X016989Y007341D01*
X027482Y010572D02*
X027969Y010572D01*
D16*
X026949Y009339D03*
X025949Y009339D03*
X025949Y008339D03*
X022949Y009839D03*
X024449Y011339D03*
X024999Y013439D03*
X025199Y014589D03*
X024699Y014739D03*
X025949Y016339D03*
X026949Y016339D03*
X023799Y018939D03*
X022449Y015339D03*
X021299Y013389D03*
X020849Y012189D03*
X021299Y011789D03*
X019799Y012789D03*
X019449Y012339D03*
X016949Y013139D03*
X014949Y011589D03*
X016749Y010889D03*
X015949Y009089D03*
X018449Y009089D03*
X020949Y009539D03*
X021099Y007589D03*
X021049Y007039D03*
X021499Y006639D03*
X020199Y003839D03*
X017449Y006839D03*
X012699Y007839D03*
X011699Y007839D03*
X011699Y013089D03*
X012699Y013089D03*
X012949Y015089D03*
X012949Y016089D03*
X011199Y018339D03*
X009949Y018089D03*
X008949Y018089D03*
X007699Y016589D03*
X006699Y016589D03*
X007699Y015589D03*
X007699Y014589D03*
X007699Y013089D03*
X006699Y013089D03*
X004449Y007339D03*
X003449Y007339D03*
X003449Y006339D03*
X004449Y006339D03*
X011699Y002089D03*
X012699Y002089D03*
X017949Y015089D03*
X017699Y015589D03*
X017299Y018239D03*
X014799Y020139D03*
X015099Y020589D03*
X018399Y021089D03*
X010149Y019739D03*
X005949Y020589D03*
M02*
